<svg width="102" height="127" viewBox="0 0 102 127" fill="none" xmlns="http://www.w3.org/2000/svg">
<path fill-rule="evenodd" clip-rule="evenodd" d="M15.2596 23.9401C19.4505 15.5526 24.5878 7.77718 30.0172 0.209725C30.6376 0.369192 30.0925 0.755642 30.3137 0.999606C30.6654 1.16197 31.0568 0.314518 31.5091 1.06836C31.925 1.76091 31.6785 2.28156 31.3857 2.81878C29.8444 5.64653 27.6185 8.03481 26.2753 11.0171C25.8155 12.0368 25.6146 13.2856 24.4809 14.0801C23.783 14.5688 23.9475 15.8048 23.3307 16.6187C22.9447 17.1286 22.7301 17.8419 22.3006 18.4172C20.5891 20.7077 19.6029 23.2985 19.3217 26.1462C19.2711 26.659 19.0574 27.1233 18.5819 27.139C17.2854 27.1825 15.9977 27.7197 14.7269 26.5852C13.8045 25.7614 13.7188 25.0154 13.9797 24.0222C14.6089 21.6293 15.8569 19.5177 17.0817 17.4078C18.5144 14.94 20.1414 12.5885 21.659 10.1754C23.7002 6.92972 25.9853 3.86464 28.1528 0.713808C28.3591 0.41434 28.5567 -0.204891 29.009 0.0676538C29.3495 0.272683 28.9908 0.763098 28.7965 1.06132C27.5713 2.9418 26.2595 4.75848 24.9159 6.55943C23.6281 8.28541 22.5487 10.1762 21.4734 12.0493C19.7359 15.0771 17.8214 18.0034 16.2491 21.1256C15.8009 22.0158 15.3573 22.9175 15.2596 23.9401Z" fill="#FE7D4C"/>
<path fill-rule="evenodd" clip-rule="evenodd" d="M8.63559 60.1374C7.84819 60.7703 7.27867 59.7853 7.02973 59.5853C6.35624 59.0443 5.30044 59.6023 5.03743 58.9619C4.63938 57.9923 3.78074 57.1717 4.13695 55.8728C4.82535 53.3603 5.86873 50.9952 6.83879 48.5965C7.5421 46.8577 8.21228 45.1019 9.2395 43.5122C9.6976 42.8035 10.2241 42.1785 11.0015 41.8223C11.7988 41.4565 12.4988 41.4304 13.2668 42.0878C13.8351 42.574 14.5678 42.8934 15.0938 43.465C15.5946 44.0084 15.9922 44.5771 15.4016 45.3177C14.987 45.8371 15.0619 46.5181 14.8532 47.1104C14.014 49.4904 13.6946 52.0534 12.3485 54.2541C11.3503 55.8865 10.6126 57.6431 9.84299 59.3861C9.62263 59.8852 9.40932 60.4882 8.63559 60.1374Z" fill="#FE7D4C"/>
<path fill-rule="evenodd" clip-rule="evenodd" d="M58.2785 42.313C58.0933 42.7306 57.974 42.999 57.8589 43.2583C57.9956 43.4368 58.1219 43.3303 58.2578 43.2922C58.5365 43.2135 58.6322 42.6796 58.9698 42.8929C59.3782 43.151 58.853 43.46 58.8844 43.7657C59.3314 43.8696 59.4502 43.3175 59.8147 43.3022C60.3797 44.1712 60.0831 44.8707 59.5571 45.6503C58.1277 47.7685 56.8888 49.9948 56.0546 52.4312C55.7398 53.3511 54.5614 53.8005 54.5387 54.8683C54.5097 56.2228 53.8776 57.3987 53.1672 58.3671C51.9404 60.0396 51.6782 62.0075 50.9479 63.8254C50.7425 64.337 51.0242 64.967 50.5188 65.3861C50.3556 65.5216 50.0992 65.8302 49.9928 65.57C49.6275 64.6812 48.9155 65.1094 48.326 64.962C47.2321 64.6882 47.0168 63.6154 46.9099 62.6719C46.7417 61.1849 47.1708 59.7468 47.7743 58.4213C50.0839 53.3461 52.77 48.4772 56.0931 43.986C56.5993 43.3017 57.0533 42.4431 58.2785 42.313Z" fill="#FE7D4C"/>
<path fill-rule="evenodd" clip-rule="evenodd" d="M42.9749 22.1608C42.7214 22.9507 42.4766 23.7774 42.1916 24.5905C40.3869 29.7448 38.0459 34.6576 35.5101 39.4856C34.538 41.3362 33.4176 43.1123 32.682 45.0872C32.4715 45.653 32.0934 46.0995 31.4186 45.4977C31.2596 45.3556 31.0235 45.2914 30.8131 45.2169C29.4135 44.7215 28.8668 43.6487 29.3058 42.1928C29.7556 40.6992 30.5878 39.3911 31.3942 38.0798C34.8064 32.5332 38.016 26.8823 40.466 20.8299C40.7767 20.0628 40.8666 20.0637 41.4112 20.6477C41.4705 20.7111 41.5906 20.757 41.6768 20.7492C42.6928 20.6585 42.7852 21.4032 42.9749 22.1608Z" fill="#FE7D4C"/>
<path fill-rule="evenodd" clip-rule="evenodd" d="M8.76018 80.0504C7.82989 82.3397 6.30894 84.0918 5.42255 86.1649C4.52663 88.2603 3.44184 90.2804 2.87936 92.517C3.69492 90.724 4.50592 88.9284 5.32687 87.1374C6.26959 85.0825 7.46498 83.1735 8.64007 81.2466C9.22989 80.2799 9.8922 80.3292 10.5562 80.8614C11.2044 81.3817 11.339 82.2577 10.7285 82.8682C9.48462 84.1121 8.78504 85.7014 8.33066 87.2625C7.53953 89.9813 6.14865 92.5013 5.72947 95.3407C5.63296 95.9951 5.15953 96.553 5.0622 97.282C4.95285 98.1021 4.91018 98.8046 5.31693 99.5688C5.55261 100.013 6.13415 100.597 5.61764 101.092C5.19515 101.498 4.57634 101.795 3.8722 101.426C3.60338 101.285 3.21154 101.377 2.87563 101.366C0.911485 101.299 -0.247864 100.019 0.0449764 98.0383C0.437639 95.3817 1.43545 92.8969 2.48918 90.4431C3.86971 87.2277 5.37078 84.0744 7.41403 81.2106C7.71557 80.7881 7.96823 80.3213 8.76018 80.0504Z" fill="#FE7D4C"/>
<path fill-rule="evenodd" clip-rule="evenodd" d="M62.3137 105.105C59.6537 105.099 58.8522 103.935 59.7523 101.729C60.456 100.004 61.6531 98.5827 62.8087 97.1587C65.5064 93.8352 68.3142 90.6069 71.3035 87.5356C72.0346 86.7842 72.9222 86.5154 73.8335 86.2366C74.1516 86.1397 74.8607 85.9484 74.8338 86.2255C74.7774 86.7921 75.3461 87.3069 74.8342 87.9133C72.5478 90.621 70.5074 93.5195 68.3933 96.361C67.4614 97.6139 66.43 98.7952 65.5325 100.071C64.9257 100.935 64.3052 101.867 64.9207 103.03C64.9944 103.168 64.9563 103.532 64.8909 103.554C63.8404 103.904 63.2055 105.023 62.3137 105.105Z" fill="#FE7D4C"/>
<path fill-rule="evenodd" clip-rule="evenodd" d="M89.5047 44.8725C90.8708 43.3378 91.7207 41.4714 93.0677 39.9464C93.4645 39.4974 93.94 39.1076 94.2792 38.6205C94.8392 37.8157 95.4154 38.4291 95.7857 38.6826C96.1452 38.9283 96.3138 39.499 95.9282 40.0391C94.3534 42.2448 93.0867 44.6591 92.0231 47.1162C91.2651 48.8678 90.0067 50.402 89.7441 52.4403C89.6443 53.212 89.117 54.1025 88.8246 54.9665C88.4336 56.1217 87.6305 55.1654 87.0108 55.1231C86.9131 55.1165 86.8265 54.829 86.737 54.8307C86.3556 54.8361 86.1311 55.8074 85.6841 55.1335C85.0777 54.2189 84.4304 53.3561 84.8545 52.0042C85.5284 49.8582 86.5635 47.9222 87.6963 46.0223C89.2322 43.4464 90.6488 40.7797 92.8345 38.6541C92.9956 38.4975 93.1435 38.3256 93.3158 38.1823C93.4935 38.0344 93.7325 37.9081 93.923 38.0899C94.1653 38.3214 94.0369 38.6014 93.8248 38.7754C91.9713 40.293 91.048 42.4821 89.7491 44.399C89.6505 44.5448 89.5855 44.7142 89.5047 44.8725Z" fill="#FE7D4C"/>
<path fill-rule="evenodd" clip-rule="evenodd" d="M43.7828 82.9957C44.3544 82.4565 44.9998 81.9752 45.4782 81.3634C46.0365 80.6497 46.6582 80.4931 47.4448 80.8042C47.9124 80.9898 47.813 81.4802 47.7679 81.7929C47.6515 82.5977 47.1751 83.2178 46.3973 83.5044C46.2113 83.5727 45.9313 83.4319 45.9317 83.7682C45.9359 85.4114 44.4949 86.2862 43.8756 87.6025C43.6855 88.0059 43.3314 88.3891 43.082 88.8028C42.3538 90.0111 41.7582 91.3237 40.2149 91.7863C39.8554 91.894 39.2854 92.2159 39.4797 92.7622C40.0724 94.4285 38.9052 95.5415 38.2429 96.777C37.1544 98.807 35.7734 100.672 34.764 102.751C34.6501 102.986 34.5797 103.319 34.2525 103.238C33.8437 103.136 34.3854 102.773 34.1017 102.56C33.5922 102.831 33.1449 103.564 32.4346 102.699C32.1811 102.391 31.8087 102.912 31.6264 103.24C31.4877 103.489 31.3353 103.723 31.0225 103.54C30.6444 103.319 30.9704 103.087 31.0702 102.884C32.8893 99.1761 35.1364 95.7283 37.4683 92.3318C39.522 89.3405 41.5751 86.3487 43.6283 83.3582C43.6793 83.2381 43.7311 83.1171 43.7828 82.9957" fill="#FE7D4C"/>
<path fill-rule="evenodd" clip-rule="evenodd" d="M63.6669 69.8359C64.9261 67.8875 66.1948 65.9416 67.5961 64.0843C65.9976 65.283 64.0708 68.0648 63.6669 69.8359M66.131 72.7937C65.7392 72.9081 66.7382 71.5462 65.6704 72.3824C65.6419 72.4048 65.5855 72.4392 65.5727 72.4292C64.869 71.8829 64.2493 71.9136 63.6052 72.5813C63.4362 72.7565 62.1249 71.2869 62.0967 70.8528C62.0545 70.1975 62.2201 69.577 62.5084 69.0034C64.1354 65.7635 66.4243 63.0716 69.3162 60.8933C70.7328 59.8259 72.219 59.9423 73.7022 60.7372C74.4987 61.1642 74.495 61.6774 73.8327 62.3165C73.1356 62.9888 72.4724 63.7016 71.8482 64.4422C71.1279 65.2967 70.5249 66.2349 69.7321 67.0479C68.6908 68.1153 68.3321 69.6292 67.5749 70.8967C67.1562 71.5963 66.7875 72.3062 66.131 72.7937" fill="#FE7D4C"/>
<path fill-rule="evenodd" clip-rule="evenodd" d="M99.1333 74.7408C98.9676 75.3062 98.8678 75.6463 98.7158 76.1649C98.9684 75.9694 99.1225 75.9101 99.1689 75.8037C99.5458 74.9421 100.238 75.165 100.784 75.4437C101.368 75.742 101.52 76.4155 101.286 76.9962C100.905 77.9439 100.464 78.8824 99.9265 79.7494C99.1847 80.9456 98.3455 82.1016 97.8402 83.408C97.312 84.7724 96.542 86.0999 96.8713 87.7041C97.0271 88.4613 96.3946 88.9061 95.7029 88.5963C95.3272 88.4273 94.9892 88.4463 94.6177 88.465C92.2633 88.5826 91.0477 86.913 91.9622 84.6651C93.2516 81.4969 95.3326 78.8187 97.4997 76.2137C97.9139 75.7159 98.1993 75.0536 99.1333 74.7408" fill="#FE7D4C"/>
<path fill-rule="evenodd" clip-rule="evenodd" d="M13.3097 124.22C13.2956 125.066 14.0093 125.477 14.1079 126.152C13.0649 126.295 12.4076 125.729 12.1794 124.565C11.9317 123.3 12.3272 122.134 12.9427 121.126C14.2524 118.98 15.3455 116.711 17.1751 114.858C17.8908 114.133 18.3858 112.96 19.082 112.083C21.0665 109.582 23.1379 107.15 25.184 104.698C25.5949 104.206 26.0824 103.792 26.6449 103.471C26.9328 103.307 27.2165 103.269 27.4845 103.485C27.7724 103.716 27.7405 104.012 27.5798 104.297C27.3408 104.722 27.1262 105.17 26.8276 105.55C24.0628 109.063 21.223 112.519 18.5361 116.09C17.4894 117.481 16.6722 119.08 16.1089 120.75C15.8488 121.521 16.1275 122.368 16.2158 123.179C16.2394 123.401 16.548 123.701 16.1569 123.867C15.406 124.186 14.7768 124.501 15.4375 125.48C15.5878 125.702 15.2461 125.82 15.0084 125.825C14.5834 125.835 14.0942 125.828 14.0441 125.3C13.9985 124.816 13.7239 124.569 13.3097 124.22Z" fill="#FE7D4C"/>
<path fill-rule="evenodd" clip-rule="evenodd" d="M31.3133 66.5308C31.0698 66.3581 30.9331 66.325 30.8266 66.5838C30.4389 67.527 30.1159 68.5099 29.6097 69.3859C29.3036 69.9152 29.3695 71.0071 28.1973 70.6886C28.0109 70.638 28.049 70.8729 28.1335 71.0058C28.3311 71.3165 28.2085 71.5443 27.9943 71.8057C27.629 72.2509 27.5283 72.7451 27.6232 73.3556C27.7992 74.4831 27.0147 75.0327 25.9834 74.57C25.8595 74.5141 25.6396 74.3261 25.6284 74.4039C25.365 76.2413 24.3692 73.805 23.9629 74.6951C23.658 74.4416 23.5147 74.119 23.4799 73.7205C23.4004 72.8072 23.774 72.0347 24.1978 71.2763C25.8032 68.403 28.1028 66.1096 30.4613 63.8774C31.0292 63.3394 31.8849 63.3104 32.6209 63.0938C33.053 62.9666 33.3077 63.3245 33.4713 63.6666C33.6954 64.1355 33.4485 64.1844 33.065 64.0593C33.014 64.9005 32.464 65.4829 32.0125 66.1216C31.8137 66.4028 31.6849 66.7429 31.3133 66.5308Z" fill="#FE7D4C"/>
<path fill-rule="evenodd" clip-rule="evenodd" d="M64.8877 20.3439C64.7949 20.2752 64.7025 20.2064 64.6102 20.1377C64.0775 20.9814 63.5399 21.8218 63.02 22.6734C62.9596 22.7728 62.8411 22.9522 63.0209 23.0607C63.146 23.1361 63.3605 23.1576 63.4032 22.9994C63.6736 21.9908 64.6201 21.3492 64.8877 20.3439M60.9623 30.5855C60.633 31.0614 60.8679 31.8749 59.8303 31.9403C59.0802 31.988 59.2156 31.6255 59.2152 31.2395C58.5703 31.2975 58.8283 32.0638 58.2571 32.2158C58.0219 31.179 58.4042 30.1866 58.3578 29.1904C58.3648 29.161 58.3694 29.1287 58.3723 29.0939C59.1734 28.4064 59.3581 27.3775 59.8021 26.4936C59.9852 26.1283 60.0494 25.6925 60.2743 25.3616C62.0844 22.6987 63.5573 19.8233 65.5069 17.2432C67.0349 15.2211 68.3881 13.0681 70.02 11.1201C70.3953 10.6723 70.7271 10.1815 71.5323 9.71222C70.911 10.8372 70.438 11.6929 69.9654 12.5487C69.977 12.5147 69.9873 12.4799 69.9964 12.4439C68.7509 13.4301 68.2435 14.9527 67.177 16.0893C67.5415 16.3978 67.6508 16.076 67.826 16.0396C68.1259 15.9778 68.311 16.1659 68.427 16.4239C68.4842 16.5503 68.5981 16.7367 68.3964 16.7884C67.5017 17.0183 67.7163 17.7606 67.6902 18.3491C67.6612 18.9999 67.3074 19.3573 66.7988 19.6481C66.0151 20.0958 65.5492 20.7308 65.6332 21.6789C65.4957 21.8823 65.3586 22.0861 65.2211 22.2894C64.3645 22.7094 63.1393 24.7552 63.2263 25.6196C62.7376 25.6449 62.5445 26.571 61.8793 26.0632C61.6822 25.5157 61.5703 25.2564 61.0584 25.9381C60.4114 26.7988 60.5154 27.971 59.735 28.7402C59.619 28.8541 59.6269 29.0223 59.786 29.1196C59.9926 29.2464 60.1844 29.1536 60.2159 28.9506C60.3534 28.0733 61.0538 27.4566 61.2659 26.622C61.3558 26.2699 61.4506 25.9617 61.9108 26.0313C62.1904 27.6571 60.9387 28.7675 60.5096 30.1555C60.4528 30.3394 59.7632 29.8441 60.0134 30.4629C60.1351 30.7648 60.5945 30.9148 60.9623 30.5855" fill="#FE7D4C"/>
<path fill-rule="evenodd" clip-rule="evenodd" d="M86.5817 105.677C86.3522 106.309 86.5299 106.88 86.732 107.428C86.8385 107.716 86.9188 107.935 86.5734 108.055C86.2582 108.164 86.0643 107.942 85.9525 107.702C85.6671 107.089 85.7379 106.405 85.9073 105.821C86.5531 103.59 87.7638 101.654 89.257 99.8878C89.7002 99.3643 90.2254 98.89 90.5725 98.3089C91.2033 97.2527 92.2769 96.9516 93.3004 96.6177C93.7784 96.4616 93.87 97.1027 93.9681 97.4478C94.024 97.6453 93.8786 98.0285 93.7026 98.1436C92.0015 99.2562 91.7277 101.329 90.5737 102.82C90.1935 103.311 90.3679 104.307 89.8766 104.959C89.4885 105.475 89.2794 106.119 88.5578 106.364C88.1415 106.506 88.4568 107.041 88.2687 107.36C88.1722 107.524 88.113 107.72 87.9075 107.747C87.7029 107.773 87.4449 107.599 87.4817 107.468C87.7298 106.588 86.6914 106.364 86.5817 105.677" fill="#FE7D4C"/>
<path fill-rule="evenodd" clip-rule="evenodd" d="M43.7828 82.9958C43.7311 83.1171 43.6793 83.2381 43.6283 83.3582C42.1343 84.6749 40.929 86.2626 39.7593 87.8428C38.1501 90.0165 36.695 92.3124 35.2938 94.6286C34.1079 96.589 32.5953 98.3506 31.7635 100.534C31.426 101.421 30.866 102.23 29.8885 102.835C29.6582 101.5 30.5081 100.645 30.9981 99.7047C32.2888 97.2257 33.9191 94.9542 35.5224 92.6744C38.4152 88.5618 41.1328 84.3096 44.738 80.7454C44.9443 80.5416 45.1091 80.2612 45.6053 80.4128C45.2814 81.4922 44.2459 82.0589 43.7828 82.9958Z" fill="#FE7D4C"/>
<path fill-rule="evenodd" clip-rule="evenodd" d="M87.565 67.249C87.1214 67.5741 87.6441 68.4523 86.9648 68.3094C86.3858 68.1872 86.5949 67.481 86.7403 67.0328C87.6429 64.2576 89.4218 62.204 91.9978 60.8591C92.3879 60.6553 92.9542 60.3443 93.3149 60.9212C93.6355 61.4328 93.1397 61.7439 92.8568 62.064C91.671 63.4077 90.546 64.7795 90.2498 66.6314C90.1757 67.0966 89.7984 67.2643 89.414 67.4217C89.2798 67.4768 89.1447 67.5667 89.0495 67.6748C88.2969 68.5305 87.729 68.6208 87.565 67.249" fill="#FE7D4C"/>
<path fill-rule="evenodd" clip-rule="evenodd" d="M64.3402 17.4523C64.2159 18.8345 63.0342 19.5974 62.3918 20.6735C61.9159 21.4704 61.5278 22.3746 60.7673 23.0075C60.578 23.1649 60.5022 23.512 60.1899 23.3364C59.9414 23.1964 59.8908 22.9131 60.0586 22.6468C61.0688 21.0451 62.0513 19.4239 63.2583 17.9572C63.5433 17.6109 63.9927 17.6204 64.3725 17.4796L64.3402 17.4523Z" fill="#FE7D4C"/>
<path fill-rule="evenodd" clip-rule="evenodd" d="M64.3724 17.4798C64.2311 17.1737 64.0671 16.8891 64.3239 16.54C65.779 14.5597 67.2038 12.5562 68.8905 10.759C69.0209 10.6198 69.093 10.2901 69.3879 10.4964C69.5747 10.6272 69.5283 10.8298 69.4004 10.9917C67.7514 13.0764 66.1514 15.1967 64.6536 17.3936C64.6114 17.4553 64.4473 17.4346 64.3401 17.4524L64.3724 17.4798Z" fill="#FE7D4C"/>
<path fill-rule="evenodd" clip-rule="evenodd" d="M58.3721 29.0938C58.3696 29.1286 58.3647 29.1613 58.358 29.1907C58.1588 29.6948 57.7239 30.1028 57.7612 30.705C57.7744 30.9196 57.803 31.2245 57.4762 31.1963C57.1842 31.171 57.2235 30.8997 57.2492 30.6686C57.4783 28.6137 58.1766 26.6923 58.9549 24.7998C59.0887 24.475 59.4801 24.1263 59.8376 24.2928C60.2609 24.49 59.9411 24.9083 59.7912 25.1535C59.0452 26.3733 58.7201 27.7356 58.3721 29.0938Z" fill="#FE7D4C"/>
<path fill-rule="evenodd" clip-rule="evenodd" d="M69.9966 12.444C69.9875 12.4796 69.9772 12.5144 69.9652 12.5484C70.4415 12.0642 71.2703 11.9209 71.3507 11.0278C71.3639 10.8804 71.7392 10.3411 72.1186 10.6737C72.4794 10.9897 72.0942 11.3236 71.8854 11.5212C70.9418 12.4146 70.193 13.424 69.7643 14.7793C69.4018 14.356 68.8605 14.0797 69.5812 13.5657C69.9685 13.2894 69.8136 12.8019 69.9966 12.444" fill="#FE7D4C"/>
<path fill-rule="evenodd" clip-rule="evenodd" d="M65.221 22.2896C65.3585 22.0862 65.496 21.8824 65.6331 21.6791C65.7984 21.549 65.9636 21.4194 66.1285 21.2893C66.1869 21.3295 66.2445 21.3697 66.3025 21.4098C65.9226 22.0879 65.5424 22.7655 65.1626 23.4436C65.0814 23.4171 65.0002 23.3901 64.919 23.3632C65.0197 23.0058 65.1203 22.6475 65.221 22.2896" fill="#FE7D4C"/>
<path fill-rule="evenodd" clip-rule="evenodd" d="M61.4022 30.0004C61.181 29.2221 61.748 28.7056 62.0454 28.1054C62.337 27.5169 62.6767 26.9519 62.9956 26.3762C63.1083 26.669 63.0818 26.9283 62.9186 27.2149C62.3954 28.1336 61.905 29.0705 61.4022 30.0004Z" fill="#FE7D4C"/>
</svg>
