<svg width="18" height="18" viewBox="0 0 18 18" fill="none" xmlns="http://www.w3.org/2000/svg">
<g clip-path="url(#clip0)">
<path fill-rule="evenodd" clip-rule="evenodd" d="M16.23 12.26L13.69 11.97C13.08 11.9 12.48 12.11 12.05 12.54L10.21 14.38C7.37998 12.94 5.05998 10.63 3.61998 7.79L5.46998 5.94C5.89998 5.51 6.10998 4.91 6.03998 4.3L5.74998 1.78C5.62998 0.770002 4.77998 0.0100021 3.75998 0.0100021H2.02998C0.89998 0.0100021 -0.0400204 0.950002 0.0299796 2.08C0.55998 10.62 7.38998 17.44 15.92 17.97C17.05 18.04 17.99 17.1 17.99 15.97V14.24C18 13.23 17.24 12.38 16.23 12.26Z" fill="#FE7D4C"/>
</g>
<defs>
<clipPath id="clip0">
<rect width="18" height="18" fill="white"/>
</clipPath>
</defs>
</svg>
