<svg width="24" height="20" viewBox="0 0 24 20" fill="none" xmlns="http://www.w3.org/2000/svg">
<path fill-rule="evenodd" clip-rule="evenodd" d="M7.548 20C16.6044 20 21.558 12.3044 21.558 5.63153C21.558 5.41246 21.558 5.19505 21.5436 4.97845C22.5072 4.26464 23.3388 3.37836 24 2.36428C23.1024 2.77287 22.1484 3.04082 21.1728 3.15896C22.2 2.52762 22.9692 1.53574 23.3376 0.365349C22.3704 0.953619 21.3132 1.3688 20.2104 1.59156C18.3456 -0.441553 15.2268 -0.540058 13.2432 1.37244C11.9652 2.60559 11.4216 4.44421 11.8188 6.19794C7.86 5.99365 4.1712 4.07626 1.6704 0.921997C0.3636 3.22954 1.032 6.18044 3.1956 7.6622C2.412 7.63881 1.6452 7.42244 0.96 7.03108V7.09517C0.9612 9.49873 2.6136 11.5683 4.9104 12.0446C4.1856 12.2476 3.4248 12.2771 2.688 12.1306C3.3324 14.1884 5.1816 15.5978 7.2876 15.6384C5.544 17.0438 3.39 17.807 1.1724 17.8045C0.7812 17.8033 0.39 17.7799 0 17.7319C2.2524 19.2137 4.872 20 7.548 19.9963" fill="#FE7D4C"/>
</svg>
