<svg width="96" height="81" viewBox="0 0 96 81" fill="none" xmlns="http://www.w3.org/2000/svg">
<path d="M30.512 36.939C28.164 36.263 25.816 35.92 23.532 35.92C20.005 35.92 17.062 36.726 14.78 37.713C16.98 29.659 22.265 15.762 32.793 14.197C33.768 14.052 34.567 13.347 34.833 12.398L37.134 4.16803C37.328 3.47203 37.213 2.72703 36.816 2.12303C36.419 1.51903 35.781 1.11603 35.066 1.01803C34.289 0.912032 33.497 0.858032 32.712 0.858032C20.075 0.858032 7.55996 14.048 2.27896 32.934C-0.821037 44.014 -1.73004 60.672 5.90596 71.157C10.179 77.024 16.413 80.157 24.435 80.47C24.468 80.471 24.5 80.472 24.533 80.472C34.431 80.472 43.208 73.806 45.878 64.263C47.473 58.558 46.752 52.575 43.846 47.412C40.971 42.307 36.236 38.586 30.512 36.939Z" fill="url(#paint0_linear)"/>
<path d="M92.471 47.413C89.596 42.307 84.861 38.586 79.137 36.939C76.789 36.263 74.441 35.92 72.158 35.92C68.631 35.92 65.687 36.726 63.405 37.713C65.605 29.659 70.89 15.762 81.419 14.197C82.394 14.052 83.192 13.347 83.459 12.398L85.76 4.16803C85.954 3.47203 85.839 2.72703 85.442 2.12303C85.046 1.51903 84.408 1.11603 83.692 1.01803C82.916 0.912032 82.124 0.858032 81.338 0.858032C68.701 0.858032 56.186 14.048 50.904 32.934C47.805 44.014 46.896 60.672 54.533 71.159C58.805 77.025 65.04 80.159 73.061 80.471C73.094 80.472 73.126 80.473 73.16 80.473C83.057 80.473 91.835 73.807 94.505 64.264C96.098 58.559 95.376 52.575 92.471 47.413Z" fill="url(#paint1_linear)"/>
<defs>
<linearGradient id="paint0_linear" x1="23.3537" y1="0.858032" x2="23.3537" y2="80.472" gradientUnits="userSpaceOnUse">
<stop stop-color="#FC936B"/>
<stop offset="1" stop-color="#FB7855"/>
</linearGradient>
<linearGradient id="paint1_linear" x1="71.9794" y1="0.858032" x2="71.9794" y2="80.473" gradientUnits="userSpaceOnUse">
<stop stop-color="#FC936B"/>
<stop offset="1" stop-color="#FB7855"/>
</linearGradient>
</defs>
</svg>
