<svg width="50" height="50" viewBox="0 0 50 50" fill="none" xmlns="http://www.w3.org/2000/svg">
<rect width="50" height="50" fill="url(#paint0_linear)"/>
<path fill-rule="evenodd" clip-rule="evenodd" d="M15 25.0058C15 19.4863 19.4884 15 25 15C30.5116 15 35 19.4863 35 25.0058C35 30.5137 30.5116 35 25 35C19.4884 35 15 30.5137 15 25.0058ZM28.668 26.0178C28.7742 25.9117 28.9094 25.7477 28.9383 25.7091C29.0928 25.5065 29.17 25.2556 29.17 25.0058C29.17 24.725 29.0831 24.4645 28.919 24.2523C28.9056 24.2388 28.8792 24.2102 28.8449 24.1728C28.7807 24.1029 28.6885 24.0026 28.6005 23.9146C27.809 23.0656 25.7433 21.6763 24.6623 21.2518C24.4982 21.1852 24.0831 21.0395 23.8611 21.0299C23.6487 21.0299 23.446 21.0781 23.253 21.1746C23.0117 21.3097 22.8186 21.5219 22.7124 21.7728C22.6449 21.9464 22.5387 22.4674 22.5387 22.4771C22.4325 23.0463 22.3746 23.9725 22.3746 24.9952C22.3746 25.9705 22.4325 26.8572 22.5194 27.4361C22.5218 27.4384 22.5301 27.4798 22.543 27.5442C22.5822 27.7397 22.6639 28.147 22.7511 28.314C22.9634 28.7192 23.3785 28.9701 23.8225 28.9701H23.8611C24.1507 28.9604 24.7588 28.7096 24.7588 28.6999C25.7819 28.2754 27.7993 26.9537 28.6101 26.0757L28.668 26.0178Z" fill="white"/>
<defs>
<linearGradient id="paint0_linear" x1="-2.98649e-06" y1="-7" x2="61" y2="67" gradientUnits="userSpaceOnUse">
<stop stop-color="#FD976E"/>
<stop offset="1" stop-color="#FB6F4E"/>
</linearGradient>
</defs>
</svg>
