<svg width="20" height="20" viewBox="0 0 20 20" fill="none" xmlns="http://www.w3.org/2000/svg">
<path fill-rule="evenodd" clip-rule="evenodd" d="M10 1.5C5.313 1.5 1.5 5.313 1.5 10C1.5 14.687 5.313 18.5 10 18.5C14.687 18.5 18.5 14.687 18.5 10C18.5 5.313 14.687 1.5 10 1.5ZM10 20C4.486 20 0 15.514 0 10C0 4.486 4.486 0 10 0C15.514 0 20 4.486 20 10C20 15.514 15.514 20 10 20Z" fill="#FE7D4C"/>
<path fill-rule="evenodd" clip-rule="evenodd" d="M8.55858 14.2207C8.36658 14.2207 8.17358 14.1477 8.02758 13.9997C7.73558 13.7057 7.73658 13.2317 8.02958 12.9397L10.9816 9.99968L8.02958 7.06068C7.73658 6.76868 7.73558 6.29368 8.02758 5.99968C8.31958 5.70468 8.79358 5.70668 9.08758 5.99768L12.5736 9.46868C12.7146 9.60968 12.7936 9.80068 12.7936 9.99968C12.7936 10.1997 12.7146 10.3907 12.5736 10.5317L9.08758 14.0017C8.94158 14.1477 8.74958 14.2207 8.55858 14.2207Z" fill="#FE7D4C"/>
</svg>
