<svg width="111" height="71" viewBox="0 0 111 71" fill="none" xmlns="http://www.w3.org/2000/svg">
<path fill-rule="evenodd" clip-rule="evenodd" d="M92.4335 8.18074C92.4029 8.07031 92.3733 7.95937 92.3427 7.84894C90.075 8.47539 87.8078 9.10132 85.5395 9.72777C85.5762 9.85804 85.6125 9.98883 85.6482 10.1201C87.9103 9.47383 90.1719 8.82703 92.4335 8.18074M15.3001 61C14.1257 60.3166 12.7044 59.9313 13.0538 58.2321C13.2768 57.1518 13.4645 56.0144 13.9574 55.0495C15.4792 52.068 16.8904 48.9815 18.8086 46.262C21.3559 42.6514 24.9726 40.2775 29.5203 40.0994C33.8593 39.9289 38.2167 40.1553 42.5649 40.2658C48.5375 40.4169 54.5352 40.938 60.0899 37.8959C63.654 35.9438 66.6809 33.5708 68.5935 29.8249C70.7557 25.5889 73.0407 21.3926 75.6013 17.3881C79.1705 11.8066 84.2074 8.17005 90.9418 7.21945C91.6239 7.12327 92.4901 6.83523 92.9687 7.12785C93.7773 7.623 94.4518 8.44587 94.9538 9.27028C95.1293 9.5578 94.7742 10.4977 94.4079 10.7145C93.6243 11.1791 92.6524 11.314 91.8014 11.6839C91.1259 11.9771 90.5147 12.4183 89.877 12.7969C89.7592 12.8666 89.6398 13.0269 89.5357 13.0157C87.2639 12.7618 86.2364 14.749 84.6605 15.7261C81.0188 17.985 78.8394 21.4913 76.8645 25.1365C74.9993 28.5791 73.2244 32.0706 71.3235 35.4929C70.7817 36.4689 70.0588 37.417 69.2134 38.1406C66.7595 40.2434 64.2479 42.1105 61.1179 43.3965C55.0484 45.89 48.9523 45.1827 42.7613 44.8183C38.9274 44.5924 35.047 44.3817 31.237 44.7216C26.401 45.1526 23.0507 48.2019 20.3718 52.0761C19.6667 53.0954 18.5959 53.8618 17.8827 54.8765C17.4102 55.5493 17.3128 56.4739 16.9817 57.2581C16.4649 58.4856 15.893 59.6896 15.3001 61" fill="#FE7D4C"/>
<path fill-rule="evenodd" clip-rule="evenodd" d="M14.2538 29.9535C14.3216 30.0753 14.3899 30.1976 14.4571 30.3194C15.6065 29.686 16.7563 29.0525 17.9061 28.4191C17.8297 28.281 17.7532 28.1429 17.6768 28.0048C16.5361 28.6545 15.3944 29.3038 14.2538 29.9535M47.9832 29.9311C48.0133 30.0432 48.0434 30.1553 48.0734 30.2675C49.474 29.8883 50.8741 29.5097 52.2747 29.1305C52.2446 29.0199 52.2151 28.9098 52.1855 28.7993C50.7849 29.1769 49.3843 29.554 47.9832 29.9311M78.1082 0.947755C77.8503 1.16587 77.5924 1.3845 77.1938 1.72186H78.4716C79.3809 3.38881 78.806 4.60832 77.5613 5.68055C76.4767 6.61468 75.4727 7.67876 73.8672 7.6283C73.7015 7.62321 73.4253 7.69099 73.3794 7.80055C72.7693 9.25092 71.7005 9.19027 70.5461 8.66894C70.4794 9.35641 70.567 10.0561 70.3163 10.6004C70.0466 11.1864 69.4773 11.6441 69.0089 12.1287C66.299 14.9306 65.2419 18.5555 63.8831 22.0677C62.6334 25.2972 60.8913 28.2866 57.7925 30.1762C57.3873 30.4229 56.8608 30.4713 56.0912 30.7006C55.5917 31.5165 54.8552 32.5261 53.2701 32.6754C52.3481 32.7625 51.499 33.5682 50.5734 33.6778C48.025 33.979 45.4246 34.4015 42.8992 34.1737C40.5572 33.9622 38.226 33.1325 35.9956 32.2937C31.1445 30.4698 26.1848 30.191 21.2114 31.2806C18.4494 31.886 15.8888 33.2028 14.0091 35.5282C13.4403 36.232 12.6636 36.7635 12.0117 37.4041C8.83693 40.523 6.33646 44.1091 4.58266 48.2059C4.04189 49.4703 3.5266 50.7458 2.98788 52.0117C2.73355 52.607 2.44456 52.9025 1.73509 52.4245C-0.0110662 51.2478 -0.275079 50.4783 0.224405 48.3119C2.22897 39.6133 7.51075 33.2839 14.6865 28.3651C17.8659 26.1854 21.5952 25.7411 25.3133 25.8445C27.8214 25.9148 30.3433 26.3923 32.805 26.933C35.1006 27.4371 37.3126 28.3075 39.5822 28.9409C42.3406 29.7104 45.0939 29.1988 47.8303 28.7361C54.7329 27.5685 59.004 23.4707 61.1095 16.8844C63.4438 9.58115 68.1343 4.29746 75.0894 1.07312C75.9513 0.674092 76.9772 0.630775 77.9273 0.422852C77.9879 0.59765 78.0481 0.772448 78.1082 0.947755" fill="#FE7D4C"/>
<path fill-rule="evenodd" clip-rule="evenodd" d="M90.5432 31.7044C90.0087 32.2866 89.4656 32.8613 88.9433 33.4537C88.719 33.7082 88.3094 34.167 88.3693 34.2474C89.1834 35.3412 88.3277 36.2538 87.7358 36.6716C86.2177 37.7446 86.7146 39.2678 86.5044 40.6216C86.3791 41.4264 85.3705 42.6881 84.6305 42.8267C84.5701 42.4594 84.5112 42.1008 84.4528 41.7421C84.128 41.9009 83.7458 41.9981 83.491 42.2323C83.0524 42.636 82.6925 43.1252 82.1824 43.713C82.7139 43.8167 83.0768 43.8875 83.4585 43.9614C83.5321 44.4233 83.6031 44.8679 83.6737 45.3075C82.2855 45.819 80.8871 46.0648 79.8237 47.2532C79.2456 47.8997 78.4452 48.2022 78.9025 49.2696C78.9416 49.3602 78.3888 49.8706 78.299 49.8241C76.1352 48.703 74.9591 50.7002 74.3008 51.7459C73.7577 52.6074 73.1242 53.0693 72.4248 53.3981C71.8883 53.65 71.0757 53.3066 70.3833 53.2499C70.2108 53.2357 70.0316 53.306 69.7646 53.3531C69.7961 53.7644 69.8245 54.1367 69.8514 54.4999C68.6119 55.0255 68.6119 55.0255 65.7984 54.247C65.5487 55.797 64.2868 56.3191 62.6535 55.4758C62.5611 55.7844 62.4738 56.0778 62.4616 56.1182C60.7729 56.0813 59.007 54.3876 57.5538 56.8695C56.2753 55.4631 54.949 56.0666 53.4983 56.8027C52.8182 57.1472 51.8984 57.0936 51.0868 57.0992C47.7723 57.1214 44.5132 57.342 41.2891 58.3011C39.7095 58.7711 38.371 59.7282 36.8813 60.1628C33.6638 61.1017 32.1877 63.9473 29.9321 65.9086C28.8738 66.8288 28.3347 68.3353 27.5353 69.56C27.0475 70.3067 26.8379 71.4854 25.4223 70.7868C24.3264 70.2465 23.9132 69.555 24.4208 68.2281C26.7795 62.0639 30.594 57.2752 36.8808 54.5794C41.6144 52.5508 46.5466 52.5245 51.5193 52.3899C54.7332 52.3029 57.9426 52.0768 61.1561 51.9331C61.653 51.9113 62.5002 51.4611 62.2748 52.6352L62.2804 52.6125L61.6591 52.8477C61.654 52.9201 61.6495 52.9924 61.6444 53.0647C61.9555 53.0931 62.2738 53.175 62.5753 53.1356C62.9301 53.0895 63.2742 52.8351 63.6168 52.8477C66.3841 52.9484 68.7159 51.6124 71.032 50.4493C73.4927 49.2135 75.788 47.6386 78.1041 46.1336C78.8096 45.6758 79.3466 44.96 79.9608 44.362L79.9202 44.3959C80.3744 44.0368 80.8277 43.6771 81.5683 43.0908C80.7318 43.0387 80.3069 43.0124 79.6349 42.9709C80.5445 41.866 81.3023 40.8163 82.1997 39.9022C82.7941 39.2961 83.2042 39.5607 83.6275 40.6372C84.3051 40.5902 84.9579 40.5452 85.74 40.4905C85.3644 39.9852 85.0477 39.5582 84.8239 39.2582C84.23 39.2096 83.494 39.3235 83.3732 39.1024C83.1504 38.6957 83.2047 38.0765 83.2971 37.5736C83.4275 36.8644 83.6468 36.1587 83.928 35.4934C84.097 35.0938 84.4554 34.7741 84.864 34.2424C84.5975 33.1451 85.0594 32.0155 87.0146 29.5088C87.2815 29.6409 87.5632 29.7795 87.9114 29.9515C87.7368 28.2542 87.9104 27.9811 88.7449 28.0504V29.7891L88.7165 29.7501C89.0088 30.3471 89.3007 30.9435 89.626 31.6098C89.7037 31.5885 89.992 31.5086 90.2808 31.4282C90.3681 31.5202 90.4559 31.6123 90.5432 31.7044" fill="#FE7D4C"/>
<path fill-rule="evenodd" clip-rule="evenodd" d="M91.05 30.6613C90.964 30.5703 90.8775 30.4793 90.7915 30.3883C90.9735 28.4573 90.893 28.3713 89.2505 28.7298L89.2785 28.7683C89.874 28.2018 90.4695 27.6348 91.1385 26.9973C90.717 26.7273 90.314 26.4693 89.698 26.0748C90.224 25.7688 90.6 25.5388 90.9885 25.3318C91.117 25.2633 91.3395 25.3058 91.4145 25.2128C94.349 21.5963 98.2415 19.4113 102.546 17.9303C104.537 17.2453 106.638 16.8808 108.693 16.3883C108.987 16.3178 109.304 16.3468 109.611 16.3298L109.74 16.7628C107.162 17.5198 104.584 18.2768 102.007 19.0338C102.04 19.1593 102.074 19.2848 102.107 19.4108C104.782 18.6718 107.457 17.9323 110.107 17.2003C111.038 19.2548 110.894 19.5073 108.98 20.3298C106.468 21.4098 103.996 22.5843 101.498 23.6963C101.001 23.9173 100.529 24.2673 99.9335 23.6563C99.691 23.4088 98.983 23.6158 98.3565 23.6158V22.6883C97.762 23.0648 97.2515 23.3878 96.4335 23.9058C97.1575 23.9923 97.5115 24.0343 97.852 24.0753C97.852 24.2113 97.8865 24.3183 97.8475 24.3678C97.4145 24.9153 96.7665 25.1823 96.822 26.2018C96.86 26.9003 95.937 26.8768 95.5255 26.2193C95.154 26.6313 94.7805 27.0458 94.222 27.6648C94.3215 28.9423 93.3995 29.6898 91.681 29.1828C91.745 29.5988 91.8975 29.9833 91.815 30.3073C91.7715 30.4793 91.3185 30.5468 91.05 30.6613" fill="#FE7D4C"/>
<path fill-rule="evenodd" clip-rule="evenodd" d="M74 47.4278C72.0934 48.2854 70.1858 49.1425 68.2787 50C68.1856 49.8714 68.0931 49.7428 68 49.6142C68.2614 49.445 68.5055 49.2507 68.7858 49.1101C70.1138 48.4445 71.4413 47.7775 72.7943 47.1503C73.0854 47.0157 73.4799 47.0458 73.8274 47C73.8847 47.1425 73.9426 47.2854 74 47.4278" fill="#FE7D4C"/>
<path fill-rule="evenodd" clip-rule="evenodd" d="M62 52C62.9157 50.2081 64.5931 50.542 66 50C65.9333 50.9677 64.7375 51.5253 62.0101 51.9661C62.0058 51.975 62 52 62 52" fill="#FE7D4C"/>
<path fill-rule="evenodd" clip-rule="evenodd" d="M80 43.8958C79.4723 43.9739 78.9099 43.9793 78.4273 44.1507C77.9537 44.3189 77.5613 44.6559 77 45C77.1311 43.9645 78.3455 42.8572 79.1308 43.0151C79.4702 43.0829 79.6842 43.6087 79.9565 43.9264C79.958 43.9259 80 43.8958 80 43.8958" fill="#FE7D4C"/>
</svg>
