<svg width="50" height="50" viewBox="0 0 50 50" fill="none" xmlns="http://www.w3.org/2000/svg">
<rect width="50" height="50" fill="url(#paint0_linear)"/>
<path fill-rule="evenodd" clip-rule="evenodd" d="M29.5786 15.5007C30.2428 15.5007 30.906 15.5943 31.5365 15.8059C35.4217 17.0691 36.8217 21.3322 35.6522 25.0585C34.9891 26.9627 33.9049 28.7005 32.4849 30.1205C30.4523 32.0889 28.2218 33.8363 25.8207 35.3415L25.5576 35.5005L25.2839 35.331C22.8744 33.8363 20.6313 32.0889 18.5797 30.11C17.1692 28.69 16.084 26.9627 15.4103 25.0585C14.2208 21.3322 15.6208 17.0691 19.5482 15.7838C19.8534 15.6785 20.1682 15.6049 20.4839 15.5638H20.6103C20.906 15.5207 21.1997 15.5007 21.4945 15.5007H21.6102C22.2734 15.5207 22.9155 15.6364 23.5376 15.848H23.5997C23.6418 15.868 23.6734 15.8901 23.6944 15.9101C23.9271 15.9849 24.1471 16.0691 24.3576 16.1849L24.7576 16.3638C24.8542 16.4154 24.9627 16.4941 25.0565 16.5622C25.1159 16.6053 25.1694 16.6442 25.2102 16.6691C25.2274 16.6792 25.2449 16.6894 25.2625 16.6997C25.3527 16.7524 25.4467 16.8072 25.526 16.868C26.6955 15.9743 28.1155 15.4901 29.5786 15.5007ZM32.3785 23.0795C32.8101 23.068 33.1785 22.7216 33.2101 22.2785V22.1532C33.2417 20.6785 32.348 19.3427 30.989 18.8269C30.5575 18.6785 30.0838 18.9112 29.9259 19.3533C29.7785 19.7954 30.0101 20.2796 30.4522 20.4364C31.1269 20.689 31.5785 21.3532 31.5785 22.089V22.1217C31.5585 22.3627 31.6311 22.5953 31.7785 22.7743C31.9259 22.9532 32.1469 23.0574 32.3785 23.0795Z" fill="white"/>
<defs>
<linearGradient id="paint0_linear" x1="-2.98649e-06" y1="-7" x2="61" y2="67" gradientUnits="userSpaceOnUse">
<stop stop-color="#FD976E"/>
<stop offset="1" stop-color="#FB6F4E"/>
</linearGradient>
</defs>
</svg>
