<svg width="106" height="96" viewBox="0 0 106 96" fill="none" xmlns="http://www.w3.org/2000/svg">
<path fill-rule="evenodd" clip-rule="evenodd" d="M104.656 49.4463C104.618 49.551 104.524 49.8141 104.405 50.145C104.51 50.196 104.624 50.2502 104.783 50.3264C104.863 50.6189 105.308 50.9283 105.037 51.3238C104.794 51.6796 105.437 52.0557 104.945 52.3444C105.029 53.0908 104.503 53.6293 104.157 54.1508C103.843 54.6238 103.767 55.2144 103.291 55.6253C102.878 55.9828 102.646 56.5498 102.333 57.0261C102.06 57.0386 101.807 57.0493 101.457 57.0651C101.52 57.2672 101.567 57.4188 101.642 57.6578C101.548 57.7638 101.393 57.939 101.225 58.1287C101.329 58.4477 101.426 58.7476 101.541 59.0996C101.377 59.2856 101.215 59.4703 101.039 59.6721C101.178 59.7218 101.308 59.7682 101.53 59.8473C101.276 60.0274 101.068 60.1757 100.848 60.3315C100.891 60.3816 100.957 60.459 101.061 60.5804C100.313 60.8587 99.6473 60.1886 98.8226 60.5125C98.3131 60.8799 97.935 61.6296 97.1782 61.9067C96.8862 62.0139 97.136 62.5491 96.6356 62.4861C96.4575 62.4638 96.5892 63.037 96.1717 62.9256C96.016 63.445 95.5525 63.6538 95.1867 63.981C94.8831 64.2519 94.606 64.6052 94.3617 64.9585C94.1579 65.2526 93.9404 65.5376 93.7246 65.8234C93.5295 66.0822 93.3005 66.3204 93.1398 66.5987C93.0031 66.8361 93.0147 67.2416 92.8299 67.3489C92.5814 67.493 92.4116 67.6487 92.3586 67.9838C92.1142 67.838 91.9651 67.7494 91.8152 67.6599C91.3483 67.8882 90.8807 68.1052 90.416 67.5344V66.3486C89.5225 65.8453 88.5885 65.4058 88.1702 64.268C88.2029 63.8928 88.0207 63.3609 88.3818 62.9219C87.8575 61.8748 88.3127 60.9884 88.8176 60.1153C89.4252 59.0644 90.2225 58.1673 91.1574 57.3409C90.6078 56.5163 90.0333 55.7479 89.5648 54.9199C89.2425 54.3504 88.8863 53.7291 88.8685 53.0776C88.8503 52.4024 88.6378 51.6979 89.0404 51.0132C89.2202 50.7067 89.0475 50.2626 89.2492 49.8588C89.3701 49.6161 89.4451 49.3464 89.6315 49.1137C89.7321 48.9881 89.7276 48.7781 89.8104 48.4451C89.9964 48.2724 90.4628 48.0396 90.5601 47.7016C90.701 47.2104 91.3297 47.3976 91.3206 46.8231C91.483 46.9461 91.555 47.0008 91.6673 47.0857C91.9274 47.0087 92.2215 46.9217 92.5284 46.8314C92.6402 47.0435 92.7343 47.2212 92.8482 47.4374C92.6233 47.8445 92.3776 48.2894 92.0952 48.8005C92.6535 48.7454 93.0847 48.7024 93.4529 48.6659C93.6033 48.8163 93.6832 48.8958 93.7718 48.9844C93.6211 49.2802 93.4691 49.5792 93.2686 49.9739C93.6227 50.0104 93.8978 50.0386 94.2386 50.0734C94.1546 50.4726 94.0709 50.8732 93.9885 51.2671C93.8443 51.3955 93.6886 51.5347 93.5283 51.678C93.6298 51.7795 93.6716 51.8337 93.6807 51.8283C93.8282 51.7467 93.9719 51.6577 94.1471 51.5516C94.2063 51.7099 94.2432 51.8072 94.2908 51.9331C93.9711 52.0951 93.667 52.2492 93.3204 52.4244C93.4811 52.4782 93.6086 52.5209 93.8447 52.5996C93.5755 52.8692 93.3365 53.1086 93.025 53.4213C93.4223 53.7349 93.7743 54.0132 94.1517 54.3115C94.7075 54.4171 95.154 54.1826 95.591 53.8049C96.6021 52.9322 97.7134 52.1705 98.7095 51.2932C99.7293 50.3948 100.814 49.5146 101.54 48.3109C101.71 48.0293 102.008 47.8255 102.265 47.5695H103.453C103.518 47.6519 103.63 47.794 103.746 47.9398C103.616 48.3105 103.483 48.6924 103.309 49.1886C103.669 49.0896 103.962 49.0093 104.342 48.9045C104.402 49.008 104.496 49.1692 104.656 49.4463Z" fill="#FE7D4C"/>
<path fill-rule="evenodd" clip-rule="evenodd" d="M32.97 73.2361C32.6035 73.3496 32.3023 73.4432 31.913 73.5637C32.0078 73.3604 32.0704 73.2262 32.1495 73.0559C31.8902 72.6653 31.597 72.3157 31.0606 72.3932C31.0192 72.235 30.9926 72.1331 30.9554 71.9914H30.0222C29.929 71.8982 29.8482 71.8539 29.8271 71.7901C29.6842 71.3593 29.6539 70.8474 29.3947 70.5094C29.0608 70.0749 29.2269 69.6487 29.2116 69.2279C29.1987 68.8861 29.3367 68.5362 29.4207 68.1932C29.7223 66.9672 30.1887 65.8012 30.7826 64.6924C31.1484 64.0106 31.558 63.3466 32.007 62.7166C32.4457 62.1011 32.9597 61.539 33.4555 60.9347C33.3209 60.8486 33.1734 60.7483 33.0202 60.6576C31.5386 59.7812 30.2409 58.6777 29.0376 57.4542C28.4697 56.8768 28.4664 56.1018 28.3007 55.3886C28.2341 55.1032 28.29 54.7888 28.29 54.4877C28.5936 53.9086 29.2054 53.8598 29.7989 53.6237C29.999 53.9757 30.2044 54.3377 30.4364 54.7449C30.477 54.7151 30.5474 54.6633 30.6737 54.5701C30.7512 54.6472 30.8874 54.7213 30.9255 54.8302C31.1616 55.5017 31.71 55.8434 32.2928 56.1341C33.4787 56.7269 34.6753 57.2964 35.9486 57.9148C36.2464 57.6 36.5442 57.117 36.9766 56.8756C37.3751 56.6527 37.3958 56.0153 38.0171 56.0766C37.9284 55.9676 37.8667 55.8918 37.7748 55.7792C37.9653 55.6458 38.1583 55.5108 38.4271 55.3227C38.5121 55.1355 38.6417 54.8501 38.7684 54.5705C38.9606 54.5593 39.1392 54.549 39.3964 54.5341C39.287 54.3933 39.2299 54.3199 39.1412 54.2056C39.6209 54.1356 39.6528 53.639 39.9547 53.3722C40.2736 53.0902 40.4994 52.7029 40.8018 52.3152C40.8689 52.3645 40.9389 52.4159 41.0722 52.514C41.131 52.3757 41.1861 52.2452 41.2553 52.0816C41.3369 52.1475 41.4123 52.2079 41.5481 52.3181C41.696 51.5249 42.1458 50.8887 42.6238 50.3167C43.1163 49.7269 43.5591 49.0496 44.3651 48.6549C44.4662 48.7382 44.6016 48.8496 44.7549 48.9755C44.4364 49.5873 44.1278 50.1937 43.475 50.513V51.4164C43.6295 51.3787 43.7865 51.3857 43.8192 51.3253C43.9501 51.0813 44.0425 50.8166 44.0942 50.6919C44.631 50.2496 45.0697 49.8884 45.6231 49.4328C45.6545 49.8548 45.6744 50.1303 45.6943 50.3946C45.5257 50.4637 45.3973 50.5163 45.2623 50.5718C45.2971 50.6203 45.3406 50.7139 45.3638 50.7089C45.638 50.6526 45.9093 50.5814 46.2427 50.4989C46.3371 50.6654 46.4523 50.868 46.5683 51.0718C46.5061 51.1409 46.432 51.223 46.3521 51.3116C46.3993 51.6388 46.7928 51.9275 46.4883 52.3024C46.3997 52.2224 46.321 52.1512 46.2406 52.0779C46.2034 52.1479 46.1309 52.222 46.1458 52.2688C46.1872 52.4014 46.2647 52.5227 46.3516 52.6942C46.2895 53.2679 45.831 53.6489 45.4056 54.0362C45.003 54.4028 44.5602 54.7246 44.0425 55.1401C44.2554 55.2622 44.4405 55.3691 44.6489 55.4892C44.5188 55.739 44.4401 55.8898 44.3573 56.048C44.4053 56.1014 44.4774 56.1801 44.5892 56.3035C44.3436 56.3429 44.1365 56.3764 43.8395 56.4249C43.9203 56.6308 43.9894 56.806 44.0694 57.0093H43.3172C43.1776 57.2956 43.0558 57.5453 42.9399 57.7831C43.0476 57.899 43.1229 57.9802 43.2315 58.097C43.0007 58.1397 42.7941 58.1782 42.4934 58.2346C42.5663 58.4267 42.6329 58.5999 42.7112 58.8057C42.5182 58.8343 42.3103 58.865 42.0394 58.9047C42.1189 59.1193 42.1835 59.2933 42.2904 59.5815C41.9963 59.4672 41.7822 59.384 41.5237 59.2837C41.4019 59.5157 41.2777 59.7526 41.1567 59.9829C41.1998 60.0649 41.2168 60.1548 41.2677 60.1825C41.3576 60.2314 41.479 60.2223 41.568 60.272C41.9139 60.465 41.9947 60.9124 42.3347 61.1041C42.7013 61.3112 42.8607 61.6666 43.0944 61.9831C43.3048 62.268 43.4609 62.5083 43.4373 62.869C43.429 62.9925 43.5392 63.1234 43.6076 63.2779C43.5479 63.3793 43.4626 63.5239 43.3462 63.7219C43.0409 63.7571 42.8189 64.1659 42.2618 63.9501C41.2889 63.5728 40.2761 63.2348 39.2195 63.1076C39.1607 63.1006 39.1122 63.007 39.0161 62.9109C38.7071 63.2592 38.4002 63.6051 38.015 64.0396C38.01 64.0806 37.9893 64.2583 37.9665 64.4501C37.7503 64.484 37.5432 64.5167 37.2214 64.5673C37.4339 64.8655 37.5925 65.0883 37.829 65.4205C37.5619 65.3422 37.3838 65.2905 37.1576 65.2242C37.1108 65.2797 37.016 65.3919 36.9128 65.5137C37.0437 65.8753 36.9385 66.0965 36.5148 66.3372C36.388 66.7928 36.2663 67.2306 36.1648 67.5959C35.9734 67.6663 35.8665 67.7057 35.7286 67.7566L35.9759 68.0039C35.6383 68.2624 35.251 68.4715 34.9893 68.7855C34.7528 69.0684 34.6542 69.466 34.4703 69.867C34.4881 69.8943 34.5622 70.0053 34.6799 70.1814C34.4309 70.4377 34.1865 70.6896 33.9513 70.9315C34.0428 71.0458 34.1103 71.1299 34.2271 71.2757C34.061 71.4654 33.8978 71.6518 33.716 71.8593V72.5179C33.4493 72.7747 33.1788 73.0352 32.97 73.2361" fill="#FE7D4C"/>
<path fill-rule="evenodd" clip-rule="evenodd" d="M60.7494 77.7377C61.2713 78.3689 61.2718 78.3701 61.9051 78.0201C61.9229 78.2223 61.9167 78.3983 61.9602 78.5607C61.9912 78.6758 62.089 78.7732 62.1519 78.8709C62.0716 78.9517 62.0181 79.0047 61.9502 79.0726C62.108 79.1464 62.2588 79.2172 62.5057 79.3327C62.2489 79.6985 62.0065 80.0431 61.7646 80.3881C62.0765 80.949 61.4167 81.0484 61.3219 81.3487C61.1757 81.8126 60.6115 81.9124 60.5954 82.4082C60.5767 82.9864 59.9836 83.0577 59.726 83.3944C59.5023 83.6872 59.1046 83.8786 59.0533 84.2522C59.1423 84.4046 59.2128 84.5252 59.3283 84.7236C58.9941 84.9125 58.7029 85.0777 58.4109 85.243L57.7063 85.576C57.4922 85.8287 57.278 86.0813 56.9918 86.4185V86.6401C56.2707 87.1698 55.5972 87.6656 54.8152 88.2406C55.0389 88.3545 55.1743 88.4236 55.3988 88.5384C55.0881 88.9729 54.7738 89.4127 54.4358 89.8854C55.3035 90.1811 56.1199 90.4598 56.962 90.7473C56.8787 90.9146 56.8083 91.0559 56.7131 91.2472C57.0883 91.381 57.4391 91.5061 57.8397 91.649V92.1403C58.0915 92.3718 58.3123 92.5743 58.5409 92.7848C58.555 93.0503 58.5678 93.3038 58.5807 93.5461L58.9903 93.9553L57.9511 94.8201C57.7063 95.0927 57.4512 95.0422 57.177 94.8603C57.0937 94.8052 56.9769 94.7738 56.8758 94.7758C55.7094 94.8015 54.6553 94.3575 53.5941 93.9694C52.8113 93.6836 52.0578 93.3178 51.246 92.9683C51.0244 93.189 50.6794 93.3564 50.6351 93.812C50.1662 93.923 49.6853 94.0373 49.2355 94.1438C49.0035 93.9089 48.8184 93.7217 48.6328 93.5336C48.7032 93.4558 48.7761 93.3754 48.8838 93.2565C48.772 93.0238 48.6515 92.7732 48.5794 92.6241C48.2302 92.6779 47.9212 92.7259 47.6197 92.7723C47.4528 92.4426 47.3028 92.1448 47.1491 91.8404C47.0742 91.9154 47.0212 91.9684 47.0017 91.9878C46.7519 91.7339 46.5001 91.4784 46.1522 91.1255C46.2603 90.3418 45.7587 89.4417 45.8933 88.4688C45.9219 88.265 45.7657 87.9701 45.6013 87.816C44.9348 87.1906 44.9062 86.2868 44.5931 85.5176C44.4734 85.2239 44.3458 84.8512 44.3355 84.4962C44.3181 83.9325 44.2522 83.3534 44.3487 82.8058C44.5012 81.9397 44.6652 81.0161 45.6738 80.6752C46.0072 80.5625 46.3742 80.5501 46.8136 80.4772V82.2388C47.196 81.9927 47.4519 81.8279 47.8338 81.5819C47.8868 81.7376 47.9506 81.9232 48.0136 82.1087C48.0703 82.0656 48.1271 82.0226 48.1838 81.9795V83.0187C48.3781 82.9201 48.5185 82.8489 48.651 82.7814C49.1303 83.2006 49.1178 83.7374 49.0516 84.2895C49.2119 84.3462 49.3423 84.3922 49.5515 84.4664C49.4625 84.7083 49.3734 84.9485 49.2657 85.2388C49.3962 85.2152 49.4616 85.2223 49.4981 85.1929C49.5859 85.1233 49.6464 84.999 49.7425 84.9626C50.7071 84.596 51.1926 83.5704 52.161 83.2138C52.3557 82.5126 53.095 82.363 53.527 81.8904C53.9764 81.3992 54.6106 81.0794 55.1528 80.6698C55.6775 80.273 55.9733 79.6045 56.658 79.3945C57.1078 78.5756 57.7552 77.9551 58.5608 77.492C58.5326 76.9374 59.2956 76.8687 59.2778 76.2838H60.2963C60.3692 76.3563 60.4757 76.4627 60.5821 76.5692C60.0946 76.8119 59.9165 77.2829 59.6046 77.7807C60.2793 77.9203 60.6678 77.099 61.3036 77.478C61.1197 77.5641 60.9694 77.6345 60.7494 77.7377" fill="#FE7D4C"/>
<path fill-rule="evenodd" clip-rule="evenodd" d="M58.1293 65.7984C58.0767 65.2703 58.8198 65.2123 58.4677 64.7203C58.3778 64.8006 58.2979 64.8715 58.218 64.9423C58.1915 64.9154 58.1455 64.8918 58.1409 64.8619C58.0573 64.3086 58.0908 63.7838 58.4835 63.3327C58.9155 62.8373 59.3438 62.3378 59.758 61.8275C59.8888 61.6664 59.9696 61.4647 60.0984 61.2377C59.8938 60.7046 59.6134 60.152 59.3699 59.6028C59.1085 59.013 59.1143 58.3735 58.8302 57.7899C58.679 57.48 59.0733 56.9362 58.9809 56.5568C58.877 56.1322 58.6264 55.771 58.9925 55.3709C59 54.2518 59.7609 53.5542 60.4265 52.7772H62.3082C62.4184 52.8816 62.5273 52.9851 62.7038 53.152C62.4175 53.517 62.1309 53.8819 61.8141 54.2857C61.8493 54.3611 61.9342 54.5413 62.0477 54.7828C62.1537 54.7828 62.3567 54.8436 62.4291 54.772C62.7435 54.4634 63.1068 54.5881 63.4377 54.5516C63.5599 54.8163 63.6618 55.0375 63.7753 55.2831C63.6055 55.4952 63.4303 55.7143 63.1644 56.0461C63.5665 56.0974 63.8362 56.1318 64.1907 56.177V57.2597C64.9537 57.2845 65.0374 56.3604 65.6798 56.3642C65.9714 55.9202 66.3968 55.6112 66.7799 55.257C67.2219 54.849 67.6423 54.4166 68.059 53.9821C68.4425 53.5816 68.8319 53.1827 69.1765 52.7503C69.531 52.3046 69.8359 51.8191 70.0409 51.5251C70.5077 51.3577 70.7707 51.2633 71.0971 51.1465C71.204 51.2985 71.3792 51.453 71.4239 51.639C71.4583 51.7819 71.3444 51.972 71.2678 52.1265C71.1804 52.3021 71.0607 52.4612 71.0619 52.7702C71.3912 52.6314 71.7205 52.4922 72.0829 52.3394C72.2764 52.7163 72.4835 53.1197 72.7974 53.7315C72.7974 53.7187 72.7792 53.9411 72.8036 54.1586C72.8227 54.3275 72.8944 54.4907 72.9577 54.7074C72.913 54.7852 72.831 54.9294 72.7552 55.0628C72.8691 55.1858 72.9449 55.2674 73.0124 55.3399C72.358 56.3878 71.769 57.4726 71.0512 58.487C70.4485 59.3386 70.533 59.3982 70.0915 59.6393C70.1619 59.7175 70.2331 59.7962 70.2903 59.8596C69.3964 60.8612 68.51 61.8548 67.6104 62.8634V63.2383C68.317 63.6885 69.0009 64.1238 69.7158 64.579C69.6122 64.782 69.5488 64.9062 69.4511 65.0989C69.7216 65.3312 69.9034 65.7781 70.427 65.6133C70.5417 65.8411 70.6353 66.0271 70.7273 66.2102C70.6614 66.3021 70.5794 66.416 70.4671 66.5722C70.7504 66.8559 71.0048 67.1106 71.2798 67.3861C71.175 67.6557 71.086 67.8856 70.987 68.1403C71.0594 68.2646 71.1464 68.4145 71.2268 68.5525C71.187 68.6382 71.1746 68.7268 71.1253 68.7596C71.0143 68.832 70.8511 68.8461 70.7699 68.9381C70.2841 69.4865 70.1971 69.5171 69.5861 69.3084C68.795 69.0379 67.9442 68.8789 67.2215 68.4841C66.2531 67.9556 65.3828 67.2473 64.3825 66.5552C63.9625 66.8658 63.4912 67.292 63.0372 67.7771C62.5981 68.2464 62.0195 68.6183 61.2151 68.8577C61.3568 68.6237 61.4148 68.528 61.5403 68.3193C61.0362 68.4133 60.6133 68.492 60.1908 68.5707L60.1183 68.4253C60.3726 68.2269 60.6265 68.0289 60.8809 67.8309L60.4878 67.4378H59.7165C59.6138 67.1798 59.4995 66.8907 59.3645 66.551H58.4284C58.2996 66.2267 58.184 65.936 58.1293 65.7984" fill="#FE7D4C"/>
<path fill-rule="evenodd" clip-rule="evenodd" d="M63.029 43.6336C62.6413 43.7264 62.2995 43.8084 61.8174 43.924C61.3224 43.5582 60.7306 43.1026 60.1196 42.6751C59.391 42.1653 58.7581 41.5158 57.9264 41.1567C57.7338 41.0734 57.5317 41.0134 57.2641 40.9173C56.9398 40.4314 56.9021 39.5293 55.9507 39.6287C55.5203 39.2352 55.4677 38.5518 54.8385 38.4855C54.6327 38.1347 54.5026 37.7333 54.2321 37.4827C52.9974 36.3375 52.104 34.9619 51.3356 33.3022C51.269 32.7898 51.2685 32.1068 51.1579 31.4217C50.984 30.3427 51.5589 29.4162 52.4933 28.818C52.7514 28.6532 52.8843 28.2908 53.313 28.3293C53.6113 28.3562 53.9261 28.1976 54.322 28.1002C54.4392 28.2046 54.5946 28.3425 54.7905 28.5165C54.472 29.0512 53.8697 29.3888 53.8242 30.107C54.5329 30.3436 54.8506 29.5562 55.5638 29.4654C55.6508 29.5433 55.8053 29.6808 55.9503 29.8109C55.6976 30.1899 55.5274 30.445 55.2138 30.9151C55.7013 30.7611 56.048 30.7586 56.176 30.59C56.4995 30.1634 57.0226 29.9923 57.3262 29.5176C57.6091 29.0757 58.073 28.7464 58.5473 28.4382C59.2179 28.0029 59.7613 27.377 60.3901 26.8709C61.3142 26.127 62.1803 25.3118 63.2095 24.6934C63.6167 24.4495 63.9178 24.0245 64.2558 23.6704C64.5632 23.3481 65.0515 23.2073 65.148 22.7268H66.6673V23.7068C66.625 23.7491 66.4792 23.8949 66.3036 24.0709C66.5049 24.0349 66.7058 24.0063 66.903 23.9615C67.1035 23.916 67.3006 23.8547 67.6046 23.7714C67.5582 24.5008 67.5934 25.1466 68.1203 25.6171C68.0093 25.7666 67.9459 25.852 67.8184 26.0247C67.9791 26.1133 68.1655 26.2152 68.5121 26.4053C68.1551 26.5031 68.0337 26.5362 67.8681 26.5818C67.931 26.7259 68.0155 26.8605 68.0462 27.0067C68.0772 27.1509 68.0532 27.3062 68.0532 27.4541C67.6345 28.029 67.2153 28.6039 66.7551 29.2351C66.6706 29.2447 66.4925 29.2641 66.2307 29.2927C66.3103 29.4021 66.3591 29.4704 66.4233 29.5591C66.3558 29.7206 66.2808 29.8999 66.1968 30.0996C65.2027 30.0515 65.1956 31.0759 64.581 31.4747C64.711 31.6458 64.7756 31.7307 64.805 31.7696C64.3962 32.1789 63.9837 32.5914 63.567 33.0077C63.6006 33.0383 63.5471 32.9899 63.5703 33.0106C63.3848 33.1957 63.1934 33.3871 63.002 33.5789C62.9399 33.5304 62.8782 33.4824 62.8161 33.4339V34.0287C62.6848 33.9206 62.6085 33.8576 62.4375 33.7172C62.4752 33.9707 62.5004 34.1393 62.5356 34.3762C62.2536 34.7415 61.9143 35.181 61.5469 35.6573C61.3817 35.5364 61.269 35.4531 61.1688 35.3794C60.762 35.8549 60.3449 36.3424 59.9241 36.8345C60.0861 36.9153 60.2356 36.9894 60.4535 37.0975C60.2505 37.3547 60.0761 37.5759 59.9125 37.7834C59.939 37.875 59.939 37.9595 59.9808 38.0067C60.6688 38.7779 61.4848 39.4676 62.0212 40.3316C62.6255 41.3046 63.3806 42.309 63.029 43.6336" fill="#FE7D4C"/>
<path fill-rule="evenodd" clip-rule="evenodd" d="M78.7019 27.3024C78.7715 27.2328 78.8249 27.1793 78.88 27.1243C78.8394 27.0721 78.805 27.012 78.7565 26.9677C78.4637 26.7005 78.0938 26.4715 77.8569 26.2097C77.6245 25.9537 77.3644 25.7586 77.1291 25.5242C76.8164 25.2123 76.4677 24.7658 76.4511 24.3644C76.4217 23.6462 76.3782 22.9259 76.5489 22.1733C76.8433 20.874 77.5239 19.8902 78.4252 18.9927C79.5692 17.8532 80.7095 16.71 81.9099 15.5096C81.4542 15.1174 81.431 14.3768 80.7095 14.2327C80.4063 13.6432 80.1044 13.0538 79.8012 12.4644C79.5216 11.9206 79.5717 11.3337 79.5746 10.7525C79.5771 10.3387 79.5754 9.92496 79.5754 9.51117C79.9561 9.02532 80.3367 8.53946 80.7112 8.0623H82.5929C82.2913 8.57715 82.0333 9.01745 81.7802 9.44987C82.4761 9.9552 82.7316 8.86046 83.343 9.19431C83.7245 9.71662 83.0145 9.96265 82.7896 10.468C83.2237 10.364 83.476 10.3031 83.7845 10.229C83.9676 10.7658 83.8761 11.2355 83.5874 11.74C83.7415 11.8 83.8628 11.8473 84.0459 11.9181C84.1764 12.0581 83.9055 12.0784 83.8595 12.2847C84.0409 12.5622 84.2617 12.9002 84.5346 13.3181C86.3986 11.3622 88.7752 10.0513 90.2287 7.8175H91.3619C91.2745 8.19029 91.1983 8.51585 91.0939 8.96111C91.4087 8.85011 91.651 8.76478 91.9832 8.64756V9.52401C92.1646 9.57165 92.2665 9.59816 92.3684 9.62508C92.397 9.68845 92.4417 9.75017 92.4496 9.81603C92.4633 9.92703 92.4347 10.0447 92.4562 10.1536C92.6861 11.3266 92.1021 12.2573 91.4891 13.1363C90.8264 14.0873 90.0568 14.9641 89.2789 15.9421C89.8339 16.6085 90.7216 16.9324 91.5028 17.5545C91.5173 17.6573 91.5409 17.8304 91.5686 18.0296C91.7757 18.2885 92.1104 18.5391 92.2052 18.8605C92.4132 19.5651 92.9276 20.2212 92.578 21.1308C92.4927 21.1697 92.3046 21.2621 92.112 21.3441C91.9199 21.4257 91.7239 21.4961 91.5057 21.581C91.2066 21.277 90.531 21.3735 90.6218 20.7816C89.9321 20.5824 89.3253 20.4067 88.7371 20.2365C88.6025 20.0025 88.4803 19.7904 88.3424 19.5506H87.0948C87.0633 19.416 87.0389 19.3141 87.0091 19.1882C86.5477 18.8332 86.16 19.2511 85.8903 19.3232C85.5217 19.7506 85.2396 20.0779 84.9277 20.4386C84.8383 20.3707 84.7666 20.316 84.6423 20.222C84.509 20.4105 84.3652 20.6134 84.19 20.8607C84.1668 20.8305 84.2236 20.9038 84.3077 21.0123C83.7841 21.1436 83.7386 21.6696 83.5083 22.1025C83.3273 21.9911 83.2084 21.9177 83.0261 21.8055C82.9951 22.0002 82.9648 22.1907 82.9284 22.416C82.8505 22.4371 82.749 22.4645 82.5676 22.5138C82.5191 22.9715 82.4541 23.529 81.7757 23.377C81.5478 23.6723 81.166 23.9469 81.192 24.1756C81.2699 24.8627 80.6946 25.1912 80.5376 25.7284C80.4635 26.4073 80.4738 26.4069 80.6846 26.8604C80.193 27.2522 79.638 27.5161 79.0005 27.6789C78.9173 27.5737 78.8241 27.4569 78.7019 27.3024" fill="#FE7D4C"/>
<path fill-rule="evenodd" clip-rule="evenodd" d="M12.6408 14.5398C12.3596 14.5746 12.1901 14.5957 11.9764 14.6222C12.1065 14.7664 12.1806 14.848 12.2991 14.9793C12.0187 15.5008 11.4872 15.8135 11.1269 16.2695L11.3033 16.446C11.0163 16.6713 10.7288 16.8966 10.4845 17.0884C10.3494 17.4442 10.6377 17.8455 10.1626 18.0659C10.5835 18.348 10.9683 18.5998 11.3464 18.8608C12.5323 19.68 13.8006 20.3829 14.7781 21.4864C15.3381 22.118 15.8654 22.7286 15.8753 23.6357C15.877 23.7885 16.0323 23.9393 16.1561 24.1634C15.8152 24.3792 15.4959 24.5809 15.0958 24.8339C12.8413 23.5131 10.5106 22.3359 8.37287 20.6108C8.21962 20.6981 7.88494 20.7719 7.82323 20.9438C7.57843 21.6247 7.09879 22.1027 6.61045 22.5902C6.5508 22.6499 6.57317 22.7911 6.55701 22.8955C6.34784 22.9187 6.17015 22.9377 5.89885 22.9676C5.95104 23.1461 5.99536 23.2977 6.07281 23.5632C5.6379 23.9273 5.31317 24.469 5.1421 25.1417C5.04269 25.5323 4.66826 25.8525 4.33275 26.3242V28.7788C4.11902 28.7925 3.94092 28.8037 3.7392 28.8165C3.69571 28.9387 3.64932 29.0696 3.59382 29.2266H2.81512C2.69334 28.8737 2.56867 28.5116 2.42453 28.0945C2.2079 28.1898 1.99169 28.2847 1.73405 28.3977C1.68104 28.2337 1.6392 28.1053 1.59737 27.9769C1.53358 27.9504 1.46317 27.8916 1.40559 27.9024C0.927605 27.9931 0.600386 27.5888 0.541569 27.3316C0.301747 26.2845 -0.375886 25.249 0.274824 24.1248C0.286836 23.0115 0.978138 22.1619 1.36997 21.1935C1.49796 20.8775 2.04802 20.933 1.89891 20.3871C1.83761 20.1626 2.24518 19.8068 2.44565 19.5148C2.62749 19.2501 2.79855 18.9755 3.00772 18.734C3.25334 18.4503 3.5524 18.2125 3.79595 17.9276C3.99849 17.6898 4.15465 17.4127 4.35305 17.1211C2.98039 16.0902 2.1408 14.6255 1.17861 13.2599C0.870031 11.9386 0.336954 10.6554 0.544883 9.10839C0.862575 8.74347 1.26891 8.27626 1.70589 7.77466C2.18968 7.87407 2.73352 7.57418 3.17547 8.07827C2.88595 8.46845 2.59849 8.85572 2.30814 9.24714C2.38808 9.33164 2.46222 9.41117 2.53553 9.48904C3.14855 9.61578 3.37305 8.72359 4.0134 8.93028C4.10867 9.11501 4.20352 9.30016 4.30293 9.49235C4.10577 9.61868 3.88003 9.76365 3.64311 9.91525C3.78766 10.0602 3.89411 10.1667 4.00056 10.2731C4.32033 9.94217 4.63098 9.93803 5.00666 10.3908C4.97269 10.643 5.1682 11.0075 4.79086 11.3012C4.94743 11.3766 5.10068 11.4503 5.31979 11.5551C5.13962 11.7974 4.97974 12.0119 4.81613 12.2319C4.96855 12.2861 5.09944 12.3321 5.37323 12.4295C5.12139 12.4974 5.0021 12.5293 4.79334 12.5856C4.8153 12.7691 4.77139 13.0201 4.87577 13.1605C5.3082 13.7421 5.78536 14.29 6.2969 14.9118C6.57855 14.6591 6.79476 14.471 7.00394 14.276C8.23991 13.1237 9.27417 11.7419 10.8071 10.9259C10.7988 10.5013 11.2433 10.5312 11.4346 10.3038C11.6513 10.0466 11.8919 9.80963 12.0472 9.64353H12.8065C12.4623 10.1501 11.8758 10.4363 12.0671 11.1661C12.5575 10.8737 13.0376 10.5875 13.6225 10.2392C13.5703 10.5734 13.5297 10.831 13.4841 11.1239C13.6887 11.227 13.9928 11.3815 14.3191 11.5464C14.2351 11.7208 14.1646 11.8661 14.0826 12.0364C14.2007 12.0612 14.3034 12.0824 14.4107 12.1047C14.4219 12.1486 14.4649 12.2236 14.4442 12.2513C14.1692 12.6225 13.801 12.9505 13.6258 13.3618C13.4062 13.8779 12.922 14.1103 12.6408 14.5398" fill="#FE7D4C"/>
<path fill-rule="evenodd" clip-rule="evenodd" d="M33.2603 26.0698C34.1603 24.9656 34.9204 24.0477 35.6647 23.117C36.3697 22.2356 36.9724 21.2838 37.5203 20.3083C37.4503 20.2217 37.3824 20.1381 37.266 19.9948C37.4574 19.7777 37.6467 19.5623 37.8476 19.3341H38.5919C38.8702 19.6124 39.0943 20.0097 39.4128 20.1111C39.8018 20.2346 39.8568 20.5456 40.0138 20.778C40.5581 21.5828 40.9367 22.3996 40.5183 23.4484C40.2611 24.0933 40.0006 24.7386 39.733 25.3806C39.6526 25.574 39.5938 25.7766 39.4915 26.0711L38.9212 26.6419V27.3526C38.4747 28.1616 38.1031 28.8359 37.6964 29.5732C38.2584 29.9551 38.7762 30.3233 39.3097 30.6671C40.3667 31.3484 41.2411 32.1946 41.7634 33.3573C41.8757 33.6075 41.927 33.8854 42.0438 34.276C42.0037 34.3651 41.9055 34.5842 41.797 34.8244C41.5642 34.9329 41.3128 35.0501 41.1164 35.1413C40.5854 34.9578 40.1157 34.8207 39.6667 34.6339C39.2173 34.4475 38.7886 34.2114 38.3508 33.9972C38.2763 33.3432 37.5307 33.6075 37.2238 33.1626C36.9719 32.7973 36.4119 32.6453 35.9207 32.3591C34.4486 33.861 33.1522 35.5016 31.9626 37.2297C31.871 37.3622 31.9005 37.578 31.8739 37.7549C31.3554 38.1542 30.8426 38.0933 30.3282 37.7304V37.3713C29.6596 36.9708 29.0329 36.5955 28.3474 36.1846C28.0194 35.8003 28.1863 35.1964 27.9726 34.7291C27.7344 34.2089 27.9357 33.7052 27.8454 33.3225C28.5926 31.657 29.477 30.1982 30.7432 28.9394V28.1707C30.0113 27.6608 29.5565 26.8659 29.0959 26.0864C28.9414 25.8251 28.9174 25.4838 28.8466 25.1764C28.7028 24.551 28.4879 23.9458 28.5069 23.2814C28.5438 22.0107 29.2653 21.104 30.4785 20.648C31.2435 20.3605 31.9866 20.5051 32.8092 20.4243C32.3664 21.3409 31.3057 21.2626 30.6856 22.031C31.7551 21.9838 32.4066 20.9764 33.4972 21.1686C33.455 21.4254 33.4127 21.6826 33.368 21.9535C33.568 22.0239 33.8617 22.1279 34.1442 22.2281V23.6625C33.8534 24.1699 33.5341 24.6761 33.2735 25.2112C33.1895 25.3831 33.2603 25.6308 33.2603 26.0698" fill="#FE7D4C"/>
<path fill-rule="evenodd" clip-rule="evenodd" d="M52.3491 12.0085C51.9262 12.5387 51.5402 13.0233 51.1131 13.5585V15.0078C50.7159 15.1672 50.3295 15.323 49.8929 15.4982C49.3768 14.997 49.1676 14.3322 49.0024 13.7038C48.7812 13.7863 48.5857 13.8588 48.2953 13.9664C48.0675 13.6388 47.7904 13.3493 47.6409 13.0047C47.1935 11.9721 47.2292 10.8695 47.278 9.83189C47.4657 9.40444 47.633 9.02254 47.8418 8.5458C47.5295 8.49899 47.2528 8.54249 47.138 8.42651C46.4082 7.68882 45.6879 6.93828 45.019 6.14592C44.6586 5.71846 44.2784 5.23509 44.1347 4.71444C43.9251 3.95231 43.9201 3.13385 43.8211 2.28266C44.1649 1.79929 44.4445 1.23308 44.8811 0.842899C45.2824 0.484201 45.8532 0.315207 46.472 0C46.6162 0.156154 46.7566 0.307337 46.8986 0.461006C46.8158 0.540533 45.7128 1.60296 45.7128 1.60296C45.7923 1.6829 45.8722 1.76284 45.9899 1.88006C46.4948 1.51183 46.9976 1.03012 47.8186 1.34781C47.6148 1.62698 47.4562 1.84402 47.1774 2.2255C47.5543 2.07846 47.7647 1.99686 48.0563 1.88337C48.1938 2.09047 48.3413 2.3129 48.5202 2.58296C48.2088 2.89485 47.964 3.13964 47.6686 3.43538C47.8592 3.47432 47.9619 3.49586 48.1325 3.53106C47.8766 3.96266 48.0211 4.55953 47.3613 4.77988C48.0162 5.5855 48.7451 6.02953 49.4849 6.52077C51.9751 4.45598 54.411 2.43592 56.8796 0.388935H57.9694C57.7785 0.771657 57.6269 1.07692 57.4732 1.38592C57.8004 1.63568 58.0593 1.35527 58.3492 1.22935C59.1867 2.01095 59.3839 2.9868 59.2116 4.07533C58.8637 4.52183 58.5062 4.98036 58.1413 5.4484C58.1649 5.46994 58.2192 5.52047 58.3683 5.6584C58.1674 5.68408 57.974 5.70893 57.7801 5.73379C57.8559 5.81497 57.9317 5.89657 58.0075 5.97817H57.5871C56.813 7.43491 55.5045 8.42609 54.5464 9.75319C55.8595 10.4847 57.3286 11.0289 58.7179 11.8569C58.7601 12.0657 58.8077 12.3026 58.8637 12.5826C59.0343 12.402 59.1623 12.2666 59.2857 12.1361C59.8449 12.2115 59.8333 12.8543 60.3026 13.0896C60.7135 13.2959 60.9533 13.8434 61.2731 14.2452V15.5864C61.1646 15.6949 61.0581 15.8014 60.909 15.9505C59.7459 15.8262 58.7841 15.1635 57.725 14.6275C57.7035 14.647 57.6248 14.7182 57.5904 14.7493C56.8494 14.5662 56.4075 13.7709 55.5525 13.8898C55.1541 13.3775 54.4988 13.3377 53.9877 13.0357C53.4712 12.7309 52.9708 12.3999 52.3491 12.0085Z" fill="#FE7D4C"/>
<path fill-rule="evenodd" clip-rule="evenodd" d="M85.2449 30.0558C85.4781 30.1875 85.6616 30.2911 85.9309 30.4431C85.8696 30.8109 85.8074 31.1816 85.7316 31.6381C85.9209 31.9669 86.0796 32.4677 86.654 32.6698C86.9113 32.3111 87.0691 31.9007 87.564 31.7002C87.9116 31.559 88.1158 31.064 88.3821 30.7256C88.6749 30.3532 89.0817 30.0989 89.3124 29.6453C89.5062 29.2639 89.9229 29.0029 90.1859 28.6475C90.4572 28.2801 90.6627 27.8639 90.8967 27.4695H92.17C92.2371 27.8266 92.3472 28.1795 91.9268 28.5481C92.2897 28.5647 92.5705 28.5775 92.8273 28.5891C92.942 29.116 93.0456 29.5932 93.1475 30.0595C92.9644 30.1312 92.8348 30.1817 92.6819 30.2414C92.6981 30.3449 92.6956 30.453 92.7325 30.545C93.0472 31.3224 92.9959 31.5892 92.3907 32.1894C92.1381 32.4395 92.0325 32.8289 92.1352 33.072C92.2967 33.4539 91.8117 33.3069 92.0407 33.6594C91.798 33.4593 91.7218 33.3964 91.5901 33.2878V33.917C91.3515 33.963 91.1452 34.0023 90.9 34.0491V34.6667C90.6109 34.9678 90.4071 35.1807 90.2373 35.358C90.6312 35.7436 90.9945 36.099 91.2964 36.3952V37.2459C91.54 37.4895 91.7947 37.7442 92.0556 38.006C91.9745 38.1501 91.9227 38.2408 91.832 38.4003C91.9504 38.6406 92.0958 38.9363 92.2835 39.3178C92.0656 39.7726 91.8249 40.275 91.5963 40.7522H90.6548C89.558 40.1246 88.4948 39.5153 87.4344 38.9081C87.2464 39.1985 87.0968 39.4296 86.9701 39.6255C86.7746 39.5303 86.6238 39.4565 86.3645 39.3302V40.3814C86.0207 40.2535 85.7805 40.164 85.3307 39.9966C85.5162 40.2501 85.5672 40.3193 85.6649 40.4527C85.4578 40.6474 85.2387 40.8532 84.892 41.1788C84.8225 40.7584 84.779 40.4949 84.7313 40.205C84.89 40.1503 85.0184 40.106 85.1816 40.0493C85.1977 39.9643 85.2172 39.8616 85.2408 39.7361C85.0979 39.6864 84.9666 39.6417 84.8349 39.5961C84.8833 39.3965 84.9326 39.1952 85.0163 38.8539C84.8071 39.0456 84.7264 39.1198 84.6783 39.1637C84.1974 39.0734 83.7426 38.9885 83.2634 38.899C83.1897 38.7574 83.094 38.5726 82.9809 38.3564C83.0662 38.0259 83.1632 37.6506 83.2613 37.2679C83.4821 37.3043 83.7625 37.3511 84.0429 37.3975C84.0545 37.3561 84.0657 37.3147 84.0777 37.2729C83.7849 37.1258 83.4925 36.9788 83.2344 36.8491C83.3856 36.5368 83.5359 36.2258 83.6925 35.9019C82.9494 34.6398 82.1397 33.4485 81.682 32.0775C81.4074 31.1332 81.7325 30.2 81.8684 29.2705C81.974 28.5477 82.5717 28.0366 83.2257 27.6708C83.3189 27.6187 83.4071 27.5586 83.5562 27.4658H84.6796C84.8568 27.6431 85.0163 27.803 85.1285 27.9152C84.9074 28.1364 84.6825 28.3609 84.5491 28.4939V29.1889C84.798 29.1243 85.037 29.0626 85.3104 28.9917C85.4537 29.1255 85.585 29.2485 85.7672 29.4188C85.5759 29.6524 85.4181 29.845 85.2449 30.0558Z" fill="#FE7D4C"/>
<path fill-rule="evenodd" clip-rule="evenodd" d="M17.3111 41.6577C17.4387 41.7853 17.5451 41.8917 17.6959 42.0425C17.0037 42.6344 16.3153 43.2225 15.6274 43.8111C15.6427 43.8509 15.6584 43.8906 15.6742 43.93C15.8204 43.8873 15.9989 43.8836 16.1053 43.7941C16.3042 43.6276 16.4607 43.4118 16.7337 43.358C17.2162 43.0859 17.6988 42.8133 18.1681 42.5482C18.5773 42.8792 18.2787 43.1405 18.1026 43.5419C18.3706 43.4404 18.5442 43.3745 18.731 43.3033C18.8126 43.3849 18.919 43.4914 19.0259 43.5982C19.0263 44.0493 19.0263 44.5008 19.0263 44.9576C18.8946 45.086 18.7604 45.2177 18.6183 45.3561C18.639 45.4083 18.6444 45.4803 18.6829 45.5085C18.9397 45.7011 19.1961 45.8962 19.467 46.0677C19.7582 46.2516 20.1658 46.3046 20.1769 46.7756C20.1782 46.8298 20.2701 46.8911 20.3306 46.9338C20.563 47.0974 20.8351 47.2212 21.0244 47.4238C21.2133 47.6255 21.3206 47.9034 21.5115 48.2298C21.5115 48.4208 21.5115 48.7219 21.5111 49.0226C21.3243 49.209 21.1383 49.3954 20.9826 49.5511C19.5581 49.0421 18.1503 48.5392 16.7428 48.0364C16.4301 48.2033 16.0933 48.3827 15.7562 48.562C15.7421 48.5392 15.728 48.5164 15.7139 48.4937C15.4211 48.7861 15.1282 49.0789 14.7542 49.453C14.7488 49.542 14.7381 49.7168 14.7244 49.9396C14.1313 50.51 13.5104 51.1077 13.0096 51.5898C12.7582 52.3698 12.8858 53.1708 11.8465 53.3353C11.6316 52.9915 10.8595 52.9364 11.0355 52.1349C10.8218 52.0732 10.5592 51.9966 10.273 51.9137C10.2084 51.9572 10.092 52.0351 10.0013 52.0956C9.71049 51.7882 9.45659 51.519 9.08754 51.1284C9.00511 50.4238 8.89949 49.5221 8.78848 48.5732C9.72665 47.5588 10.6511 46.5593 11.632 45.4986C11.2484 45.2583 10.8529 45.0574 10.514 44.7861C10.1636 44.5053 9.86831 44.1557 9.53984 43.8273C9.63055 43.5344 9.72292 43.2358 9.82233 42.9131C9.63842 42.8502 9.50712 42.805 9.34393 42.7487V41.9857C9.40689 41.9224 9.48683 41.8428 9.57919 41.7501C9.90227 41.6859 10.2415 41.6183 10.6607 41.5347C11.7765 42.1609 12.9968 42.8456 14.1839 43.5112C15.3743 43.0585 16.1459 42.0143 17.3111 41.6577" fill="#FE7D4C"/>
</svg>
