<svg width="108" height="98" viewBox="0 0 108 98" fill="none" xmlns="http://www.w3.org/2000/svg">
<path fill-rule="evenodd" clip-rule="evenodd" d="M24.3968 63.4769C25.989 63.8505 27.4967 63.6169 28.9244 62.7951C27.3575 62.6054 25.8933 63.1592 24.3968 63.4769M37.0519 48.0322C37.16 53.2271 35.5964 57.0506 33.479 60.6409C31.9949 63.1576 29.571 64.4167 26.6475 64.5658C24.1578 64.693 21.7061 64.4992 19.3315 63.5962C17.5413 62.9161 16.3546 61.6018 15.3643 60.085C13.5232 57.2643 11.361 54.548 11.2869 50.9614C11.1937 46.4831 12.1161 42.2706 15.0739 38.7346C16.3265 37.2377 17.8131 36.2328 19.9723 36.5696C22.1154 36.9038 22.9802 39.5137 22.9641 41.0773C22.9566 41.8009 22.3527 42.1654 21.9965 42.59C20.3741 44.5243 20.0431 46.9453 19.2781 49.2027C19.1203 49.6674 19.4404 49.7954 19.7967 49.8729C22.1079 50.3749 24.2067 50.227 25.7786 48.1196C26.6119 47.0029 27.5132 45.9442 28.0641 44.6424C28.3263 44.0235 28.3387 43.4561 28.1084 42.7971C27.8363 42.0159 27.2854 41.055 28.6585 40.6275C28.9393 40.5401 28.8818 40.3011 28.7504 40.0725C28.1743 39.0726 28.5069 38.0984 29.5921 37.5711C31.7899 36.5029 35.2054 38.455 35.4174 40.8943C35.4398 41.1506 35.456 41.4485 35.5922 41.6473C37.1177 43.869 36.8187 46.4603 37.0519 48.0322" fill="#FE7D4C"/>
<path fill-rule="evenodd" clip-rule="evenodd" d="M67.25 48.5984C65.995 48.4025 64.7731 48.4916 63.6187 49.0325C64.8659 49.1891 66.1085 49.3283 67.25 48.5984M60.3287 23.6291C59.8035 24.0835 59.0737 23.8586 58.7635 24.5093C59.1731 24.8225 59.5496 24.3867 59.9067 24.4642C60.4045 24.5727 61.4259 24.3971 60.6183 25.4641C60.5586 25.5432 60.4194 25.6223 60.5884 25.7055C61.9872 26.3964 60.9401 27.2849 60.7201 28.0367C60.4915 28.8224 60.1399 29.575 60.1212 30.408C60.0955 31.5731 60.0839 32.7387 60.0997 33.903C60.1187 35.3324 60.3407 35.5159 61.7577 35.3813C64.2019 35.1489 65.9171 33.3873 65.8579 30.9381C65.809 28.9301 66.2079 27.0086 66.6602 25.0921C66.8934 24.1046 67.513 23.3131 68.6103 23.1246C69.9022 22.9022 71.7764 23.6971 72.2577 24.844C73.0679 26.7742 73.7977 28.769 74.0848 30.8425C74.651 34.936 74.5346 39.0192 73.3872 43.032C72.9391 44.5989 72.3277 46.1261 71.3813 47.4192C70.1366 49.1195 68.2673 49.8845 66.1822 50.1024C63.5479 50.3774 61.0097 50.2917 58.8074 48.4945C58.3248 48.1006 58.0204 47.5861 57.6919 47.1317C55.529 44.1383 52.9377 41.3263 52.4249 37.4684C51.8343 33.0257 52.5185 28.7644 54.8074 24.8506C55.6014 23.4925 56.6879 22.4727 58.4462 22.6711C59.164 22.7523 59.8325 22.9652 60.3287 23.6291" fill="#FE7D4C"/>
<path fill-rule="evenodd" clip-rule="evenodd" d="M51.1269 84.2328C52.3086 84.8329 54.32 84.7679 55.2772 84.1425C53.8979 84.0658 52.5816 83.966 51.1269 84.2328M64.0276 71.6775C64.1415 75.4931 63.0451 79.3224 60.4812 82.6882C59.4155 84.087 57.9649 84.963 56.268 85.342C53.3528 85.9927 50.5164 85.7197 47.8021 84.4076C46.2232 83.6446 45.215 82.3448 44.1841 80.9718C42.2684 78.4199 41.3223 75.4708 40.5267 72.4897C39.6163 69.0796 40.2595 65.7921 41.8314 62.6206C42.3715 61.5304 42.7414 60.4332 43.8622 59.7804C44.7155 59.2834 45.5294 59.4987 46.3487 59.7974C46.545 59.869 46.8507 60.1026 46.8345 60.2261C46.6059 61.974 48.0954 63.4341 47.6426 65.2168C47.4674 65.9073 47.3718 66.6193 47.2616 67.3247C46.9555 69.2842 48.022 70.7302 50.0347 70.9489C51.9947 71.1618 53.7144 70.5637 54.9231 68.9595C55.9192 67.6382 56.6337 66.1458 57.0156 64.5168C57.3325 63.1648 58.399 62.4375 59.7775 62.6438C62.0676 62.9863 62.6367 63.6002 62.8828 65.9868C62.8977 66.1351 62.8902 66.3202 62.9747 66.4205C64.1813 67.8648 63.8118 69.6318 64.0276 71.6775" fill="#FE7D4C"/>
<path fill-rule="evenodd" clip-rule="evenodd" d="M95.5633 31.107C96.3495 31.3004 97.134 31.6161 97.8588 31.0308C97.0839 30.9529 96.3097 30.7549 95.5633 31.107M93.9803 14.08C95.6685 14.6056 94.3303 15.5972 94.3365 16.3515C94.3394 16.7218 93.9111 17.1406 94.3158 17.5328C94.7101 17.9147 95.2088 17.8861 95.6909 17.6927C97.8431 16.8299 99.007 15.0919 99.4614 12.9575C99.7948 11.3894 100.344 9.89079 100.678 8.32759C100.977 6.92511 102.408 6.18245 103.819 6.5018C105.505 6.88327 106.559 7.80322 106.793 9.5789C107.07 11.6897 107.666 13.7279 107.603 15.9199C107.456 21.0175 106.013 25.5956 102.849 29.6105C99.8967 33.3553 94.2383 33.5181 91.1997 29.8168C90.2143 28.616 89.301 27.2384 89.1225 25.5654C89.0931 25.2895 88.9084 25.0166 88.7526 24.7689C86.1564 20.6501 86.4244 16.4016 88.3484 12.178C89.6655 9.28771 91.93 9.4273 93.7711 10.8041C94.0014 10.9764 94.3195 11.1819 94.2665 11.5111C94.1985 11.934 93.7756 11.724 93.5172 11.8119C93.2716 11.8955 92.9315 11.9063 92.9737 12.255C93.0172 12.6195 93.3631 12.511 93.6116 12.5371C94.0635 12.5843 94.5382 12.6142 94.7122 13.1468C94.8994 13.7209 94.2478 13.7226 93.9803 14.08" fill="#FE7D4C"/>
<path fill-rule="evenodd" clip-rule="evenodd" d="M15.2577 90.267C15.0108 90.6319 15.1665 90.9558 15.5343 90.9923C16.1122 91.049 15.7539 90.6195 15.7733 90.3747C15.8011 90.0255 15.9643 90.2471 16.1378 90.2794C16.5193 90.3507 16.4883 89.9957 16.3321 89.8934C16.0728 89.7228 15.7141 89.5828 15.4188 89.6171C15.0709 89.6569 15.1653 89.9994 15.2577 90.267M13.8084 94.8373C12.9261 94.5644 11.92 95.6251 11.3807 94.2454C11.3783 94.8419 11.0283 95.7249 11.7216 95.6897C12.3549 95.6574 13.3076 95.7121 13.8084 94.8373M19.1242 91.6235C19.7783 92.0129 19.9083 91.2073 20.5992 91.2412C19.6635 91.9706 19.1271 92.7663 18.763 93.7662C18.5224 94.4268 17.5196 94.8294 16.8801 95.1426C14.614 96.2522 12.1723 96.9912 9.61458 97.0632C8.84044 97.0852 8.09322 96.5997 7.28015 96.5438C7.02831 96.5268 6.79139 96.3218 6.8092 96.0054C6.81334 95.9262 6.95293 95.7817 7.0105 95.7908C7.47813 95.8658 7.80618 95.8268 7.57547 95.2242C7.47234 94.9549 7.51003 94.5822 7.15133 94.4815C6.52133 94.3046 7.01589 95.1989 6.53086 95.1575C6.06778 95.5502 6.67251 93.6196 5.83293 94.8547C5.77991 94.8129 5.7008 94.781 5.67802 94.7263C5.17932 93.5239 4.00961 92.8545 3.35932 91.7283C2.73967 90.6555 1.94399 89.6851 1.47636 88.5062C0.0701466 84.9661 -0.37512 81.3219 0.329437 77.5759C0.69559 75.6275 1.9324 74.8339 3.71677 75.1806C4.32772 75.299 4.80032 75.6047 5.04346 76.1258C5.96257 78.0965 7.34932 79.9315 6.62902 82.3645C6.40618 83.1171 6.83364 83.9215 7.3692 84.5365C7.70015 84.9164 8.10441 85.1425 8.66358 84.8571C9.73305 84.3112 10.7959 83.7885 11.5522 82.7903C12.0923 82.0774 12.736 81.4429 13.3113 80.7553C14.1058 79.8055 14.3228 78.5998 14.4114 77.4583C14.5469 75.7178 15.6677 74.9018 17.2926 75.6354C17.9533 75.9336 18.5965 76.3788 18.8749 77.0304C19.6117 78.7526 20.4493 80.4082 20.8469 82.3057C21.2354 84.1592 21.346 85.9593 21.2516 87.8116C21.2106 88.6177 20.6932 89.3193 20.7649 90.163C20.7781 90.3192 20.4165 90.6419 20.2111 90.6572C19.5459 90.7069 19.5049 91.2988 19.1242 91.6235" fill="#FE7D4C"/>
<path fill-rule="evenodd" clip-rule="evenodd" d="M85.3422 57.6243C84.6579 58.3297 84.4558 58.3977 84.2255 57.9487C83.9136 57.3406 83.0231 57.1335 82.5633 57.5742C82.2813 57.8443 82.2862 58.1963 82.5306 58.4482C82.9104 58.84 85.1335 58.2063 85.3422 57.6243M87.1187 66.0703C86.6888 65.6648 85.9805 65.9494 85.7597 65.6714C84.9906 64.7026 84.4736 65.8951 83.825 65.8201C83.7111 65.8069 83.2753 66.2277 83.4004 66.5206C83.528 66.8184 84.0822 67.0491 84.2433 66.9111C85.0713 66.2012 86.1963 66.6212 87.1187 66.0703M84.7151 61.4955C84.2578 61.4892 83.7252 61.5037 83.6514 62.1284C83.5645 62.8636 84.2417 62.5318 84.5768 62.6917C84.9926 62.8909 85.3621 62.4978 85.7067 62.6175C86.0828 62.7476 86.311 62.6378 86.4473 62.3607C86.6453 61.9581 86.2746 61.6678 86.1089 61.3658C85.9333 61.0473 85.6408 61.2855 85.4292 61.3977C85.2122 61.5133 85.0514 61.7953 84.7151 61.4955M93.8532 49.8316C94.441 50.0809 94.9364 50.3874 95.0271 50.983C95.0975 51.4457 94.5578 51.2084 94.2972 51.5103C95.5423 51.5393 95.2955 52.6336 95.1637 53.088C94.8158 54.285 95.2569 55.4295 95.1169 56.5992C95.0246 57.3679 94.8477 58.1462 94.7839 58.9237C94.7181 59.7301 94.1779 58.6188 93.7588 58.6772C93.5388 58.9171 93.555 59.1689 93.8366 59.3118C94.1258 59.4588 94.639 59.429 94.5984 59.8366C94.5491 60.3316 94.4058 61.0908 94.0831 61.2316C93.2137 61.611 93.415 62.4734 93.4684 62.8727C93.5836 63.7342 93.1905 63.6286 92.7328 63.4994C92.0709 63.3117 91.6737 63.523 91.5407 64.165C91.3713 64.9843 90.4506 64.8492 90.0393 65.4262C89.6358 65.9916 89.0042 66.3913 89.0593 67.2371C87.9223 67.1008 88.4479 66.0993 87.9968 65.4913C87.8361 67.4774 86.3686 67.443 85.0394 67.5908C84.5979 67.6405 84.0975 67.4707 83.7098 67.6215C82.8964 67.9371 82.9556 67.5436 83.1614 66.8018C82.7079 67.6857 82.2891 67.9868 81.6508 67.252C81.4193 66.9857 81.0362 67.0263 80.7081 66.953C80.1042 66.8175 80.0305 66.6767 80.0466 65.8992C80.0512 65.6801 79.9124 65.7025 79.7778 65.6408C78.3923 65.0062 77.7905 63.8461 77.7801 62.3263C77.7752 61.6027 78.0709 60.4492 76.6427 60.5246C76.446 60.5345 76.4066 60.385 76.3433 60.2504C75.0319 57.4599 75.459 54.7767 76.9339 52.2095C77.6149 51.0249 79.3574 50.4355 80.682 50.901C81.1153 51.0534 81.5804 51.466 81.7643 51.8785C81.9474 52.2882 81.4868 52.4518 81.0668 52.5056C80.74 52.5475 80.8411 52.8279 80.9107 53.0429C81.0275 53.4028 81.2706 53.496 81.6144 53.3688C82.4511 53.0586 82.6395 53.1974 82.5414 54.189C82.4697 54.9155 83.5048 55.2046 84.0843 55.5981C84.4769 55.8648 84.6861 55.2932 84.8017 54.9648C84.8858 54.7278 85.0154 54.5506 85.2051 54.454C87.0379 53.515 87.2397 51.7174 87.5238 49.9927C87.6572 49.1837 87.6775 48.3119 87.834 47.5468C87.9927 46.771 88.2383 45.9579 88.4408 45.1581C88.766 43.8762 89.8218 43.8352 90.8337 43.8923C91.4877 43.9292 92.1351 44.1545 92.7738 44.3376C92.9283 44.3819 93.1598 44.6056 93.1458 44.7216C93.0232 45.7301 94.2045 46.4504 93.7203 47.5829C93.5981 47.8687 93.9895 48.4386 94.2446 48.8093C94.7301 49.5126 94.7483 49.535 93.8532 49.8316" fill="#FE7D4C"/>
<path fill-rule="evenodd" clip-rule="evenodd" d="M44.7468 28.8495C43.8302 29.2641 43.1849 29.7334 42.8001 30.5018C43.4289 30.0143 44.4809 30.0143 44.7468 28.8495M41.1706 15.2252C42.0231 15.0666 42.4393 14.5596 42.9177 14.1702C43.8451 13.4147 44.6031 13.6558 44.8777 14.8715C44.997 15.3988 45.0264 15.6924 45.7434 15.8386C46.4509 15.9832 46.6091 16.9938 46.9301 17.6512C47.9196 19.6791 48.2999 21.8582 48.1715 24.0982C48.0004 27.0863 46.5138 29.3275 44.0692 30.9938C42.9488 31.7576 41.7969 32.2074 40.3845 32.0414C39.7122 31.9622 39.3249 31.5331 38.8068 31.2755C37.0249 30.3908 35.1846 29.6245 33.5212 28.4983C31.7314 27.2872 29.6484 22.7512 30.5211 20.3464C31.0803 18.8051 32.0234 17.8761 33.5899 17.5501C34.4908 17.3625 34.9029 17.7365 34.9688 18.8387C35.4534 18.4982 35.6878 18.1027 35.8216 17.5729C36.1356 16.3324 36.597 15.1457 37.1802 13.9983C37.8719 12.636 39.0209 11.9708 40.4354 11.6374C40.9909 11.5065 41.5447 11.5757 41.8822 12.0193C42.2103 12.4501 42.1821 12.9707 41.8843 13.4918C41.6093 13.9727 41.4531 14.5215 41.1706 15.2252" fill="#FE7D4C"/>
<path fill-rule="evenodd" clip-rule="evenodd" d="M67.0716 5.34097C67.7716 3.75375 68.0889 2.11517 69.3245 0.95789C69.5137 0.780612 69.6786 0.549487 69.9023 0.441381C70.4345 0.184162 71.1105 -0.233353 71.5711 0.163866C71.9704 0.508482 71.9045 1.23665 71.7016 1.82895C71.6034 2.11351 71.2397 2.5041 71.6568 2.7141C72.0097 2.89097 72.2114 2.4341 72.4368 2.19925C72.5668 2.06339 72.6637 1.89481 72.8 1.76765C73.0543 1.53032 73.1774 1.01629 73.6562 1.206C74.0385 1.35677 74.3756 1.63221 74.432 2.1015C74.4842 2.53682 74.4804 2.94191 75.1576 2.647C75.5023 2.49706 75.7437 2.9444 75.9305 3.19706C77.9945 5.98795 78.422 8.87534 75.7392 11.7197C74.9187 12.5891 74.0758 13.4369 73.2445 14.296C72.7876 14.7682 72.2326 14.762 71.6784 14.5652C71.0529 14.3432 71.7272 13.8358 71.4481 13.4295C70.8118 14.4521 70.1997 14.3163 69.3858 13.5786C68.8813 13.1217 68.2765 12.5506 67.3272 12.9329C66.9776 13.0737 66.3124 12.6852 65.9044 12.3849C63.8595 10.8801 62.6285 8.88819 62.58 6.29611C62.5605 5.26807 62.8981 4.35641 63.9378 3.89333C64.137 3.80469 64.5392 3.7028 64.5545 3.73718C65.0313 4.80955 66.4209 4.38126 67.0716 5.34097" fill="#FE7D4C"/>
</svg>
